<svg width="120" height="120" viewBox="0 0 120 120" fill="none" xmlns="http://www.w3.org/2000/svg">
<mask id="mask0" mask-type="alpha" maskUnits="userSpaceOnUse" x="0" y="0" width="120" height="120">
<circle cx="60" cy="60" r="60" fill="white"/>
</mask>
<g mask="url(#mask0)">
<circle cx="60" cy="60" r="60" fill="#5E4545"/>
<path fill-rule="evenodd" clip-rule="evenodd" d="M103.3 165.628C105.743 165.51 104.76 161.239 104.585 159.67C102.651 153.94 103.106 147.688 102.346 141.682C101.872 136.076 101.263 130.487 100.751 124.884C99.7455 113.512 92.524 90.3614 84.2831 86.6382C83.245 82.0832 78.9573 77.8312 73.5324 77.8312C69.8324 73.4515 65.3789 70.3692 59.6668 70.9915C57.3063 71.0989 55.0171 73.6025 52.7553 74.086C51.4888 74.2606 40.2498 73.8111 37.9985 75.1482C36.4303 75.9534 35.0146 77.4414 35.4757 79.3357C36.2114 81.6308 33.9251 79.1474 29.1557 81.597C19.4302 87.438 25.2417 95.252 25.4993 95.4942C19.4302 103.938 14.1255 110.789 11.6711 121.11C10.0804 128.773 10.2595 136.683 8.92669 144.385C8.4561 147.056 7.73418 149.635 6.95298 152.228C6.10633 155.622 5.69466 164.082 5.22799 164.157C4.37792 164.369 5.71928 166.114 6.62001 166.115C31.5929 170.258 56.9593 166.287 82.0664 165.638C89.142 165.392 96.2252 165.335 103.3 165.628Z" fill="white"/>
<path fill-rule="evenodd" clip-rule="evenodd" d="M52.7867 81.5216C52.7867 84.1793 62.0152 94.055 65.2 93.4035C67.3232 92.9692 70.5312 90.1365 74.824 84.9056V81.5216L73.8969 77.8377C79.1486 78.0228 83.2683 82.1858 84.2831 86.6383C92.4416 90.3242 99.6009 113.051 100.719 124.54L100.751 124.884C101.263 130.487 101.872 136.076 102.346 141.682C103.106 147.688 102.651 153.94 104.585 159.67L104.596 159.767C104.798 161.408 105.694 165.513 103.3 165.628C96.2252 165.335 89.142 165.392 82.0664 165.638C56.9593 166.287 31.5929 170.258 6.62001 166.115C5.71928 166.114 4.37792 164.369 5.22799 164.157C5.69466 164.082 6.10633 155.623 6.95298 152.228L7.1137 151.692C7.83256 149.279 8.48856 146.872 8.92669 144.385C10.2595 136.683 10.0804 128.773 11.6711 121.11C14.1255 110.789 19.4302 103.938 25.4993 95.4942C25.2417 95.2521 19.4302 87.4381 29.1557 81.5971C33.9251 79.1475 36.2114 81.6308 35.4757 79.3358C35.0146 77.4414 36.4303 75.9535 37.9985 75.1483C40.2498 73.8112 51.4888 74.2607 52.7553 74.086C53.3436 73.9603 53.9338 73.6978 54.5266 73.3765L54.4237 73.7189C53.3323 77.3766 52.7867 79.9776 52.7867 81.5216Z" fill="white"/>
<path fill-rule="evenodd" clip-rule="evenodd" d="M65.4504 96.2393C65.462 96.1249 65.6162 96.1252 65.6281 96.2393L65.8044 97.9413C66.0189 100.02 66.2254 102.095 66.3752 104.183C66.5618 106.787 66.6866 109.391 66.7468 112.001C66.9566 121.091 66.9983 130.187 67.016 139.279C68.2456 139.194 69.4754 139.112 70.7058 139.033C71.5406 138.979 72.3754 138.927 73.2104 138.876L75.3393 138.747L76.2158 138.693C76.808 138.657 77.4809 138.508 77.895 139.032C78.0608 139.242 78.144 139.515 77.9894 139.765C77.6329 140.34 77.0854 140.32 76.4661 140.344C75.8818 140.368 75.2975 140.391 74.7131 140.414C73.461 140.462 72.209 140.508 70.9564 140.543C69.642 140.58 68.3281 140.61 67.0142 140.633C67.0009 144.471 66.8421 148.305 66.6703 152.139L66.5926 153.865C66.3825 158.531 66.1564 163.201 65.8353 167.861C65.8089 168.243 65.2692 168.242 65.243 167.861C64.8814 162.613 64.6428 157.354 64.4062 152.099C64.2346 148.289 64.1348 144.478 64.0873 140.667C63.9136 140.668 63.7399 140.67 63.5663 140.671C58.6346 140.692 53.7042 140.714 48.7725 140.667C48.7808 140.677 48.7888 140.687 48.7943 140.7C49.1511 141.542 49.1851 142.617 49.1764 143.522C49.1664 144.558 49.0268 145.583 48.788 146.591C47.9323 150.204 45.7252 153.439 43.2115 156.115L43.1294 156.202C42.5365 156.828 41.8563 157.458 41.4922 158.256C41.1204 159.07 40.9913 160.023 40.8078 160.899L40.7864 161L40.0688 164.314C39.8409 165.366 39.7762 166.901 38.9429 167.661C38.1655 168.37 37.1356 167.999 36.7698 167.087C36.4841 166.375 36.7687 165.593 36.9379 164.881L38.2636 159.309C38.4814 158.4 38.7195 157.485 39.1896 156.669C39.6712 155.832 40.3772 155.226 41.0976 154.606C42.4617 153.432 43.714 152.087 44.7731 150.631C45.8318 149.176 46.7365 147.572 47.371 145.885C47.6887 145.041 47.949 144.164 48.1286 143.279C48.2993 142.44 48.2978 141.571 48.4804 140.741C48.4929 140.683 48.5413 140.644 48.5968 140.627C48.5836 140.59 48.6037 140.54 48.6555 140.536L52.6888 140.277C56.274 140.046 59.8591 139.809 63.4411 139.538L64.074 139.492C64.0249 134.406 64.0666 129.32 64.1584 124.232C64.2426 119.567 64.2444 114.9 64.3831 110.236C64.4521 107.921 64.6009 105.611 64.7664 103.301C64.9357 100.938 65.2068 98.595 65.4504 96.2393ZM27.5796 123.29C27.5366 123.031 27.8625 122.87 28.0128 123.107C29.7302 125.814 30.5583 128.755 30.9073 131.922C31.2157 134.718 31.1248 137.554 30.9713 140.358C30.8075 143.347 30.6164 146.336 30.4232 149.325L30.1264 153.907L29.3815 165.395C29.3281 166.217 29.1416 166.964 28.4341 167.346C28.3445 167.421 28.2511 167.488 28.1423 167.546C27.7601 167.75 27.2531 167.647 27.0321 167.255L27.1207 167.313C27.1979 167.362 27.1112 167.294 26.8606 167.11L26.6479 166.834C26.4934 166.602 26.3947 166.374 26.355 166.098C26.2933 165.669 26.3732 165.198 26.4012 164.767L26.8895 157.234C27.2693 151.378 27.7127 145.523 28.0469 139.664C28.2026 136.933 28.3116 134.2 28.2378 131.464C28.1643 128.744 28.0257 125.977 27.5796 123.29ZM42.4369 72.8628L42.5322 72.8469C45.9435 72.2802 49.6528 72.3863 52.7704 74.0306C52.7961 74.0442 52.7844 74.087 52.7554 74.0857L51.752 74.0457C48.5753 73.9213 45.4084 73.8476 42.2849 74.594L41.9652 74.671C40.8403 74.9454 39.6656 75.2813 38.7621 76.0242C37.8985 76.7344 37.4685 77.8298 37.055 78.8384L36.9997 78.9714C36.5802 79.9675 36.0492 80.9122 35.1297 81.535C33.9387 82.3416 32.5064 82.2428 31.1407 82.3523C28.7362 82.5455 26.7704 84.2881 25.7923 86.4206C25.2 87.7118 24.9474 89.1594 24.8974 90.5714C24.8717 91.2903 24.8681 92.0373 24.9638 92.7513C24.9944 92.9797 25.2767 93.8116 25.4207 93.7916C25.7405 93.7472 26.0329 93.914 26.1326 94.1697C26.9226 93.4064 27.7354 92.6652 28.5744 91.9506C30.6656 90.1697 32.9181 88.5556 35.2902 87.1686C37.1006 86.1099 39.0103 85.0611 40.9878 84.2682C40.8311 84.2649 40.6765 84.296 40.527 84.3737C40.4616 84.4079 40.3965 84.3258 40.4482 84.2715C41.071 83.6161 41.8171 83.5229 42.5692 83.6976C42.7297 83.6466 42.8903 83.5972 43.0516 83.5503C43.1318 83.5269 43.1717 83.6375 43.1063 83.6802L42.9215 83.7982C43.742 84.0731 44.5476 84.6133 45.1854 85.0396C47.0174 86.264 48.63 87.7608 50.2647 89.2295L50.5619 89.4958C52.0007 90.7805 53.4763 92.029 55.111 93.0597C55.9668 93.5991 56.8656 94.0982 57.8084 94.4693C58.617 94.7879 59.9337 94.9884 60.3124 95.843C60.649 96.2519 60.5084 96.7738 60.1141 97.049C59.4492 97.7808 58.119 97.3081 57.3267 97.0033C56.3715 96.6358 55.4462 96.1942 54.5636 95.6762C52.8502 94.6703 51.2704 93.4197 49.7987 92.0893C48.2618 90.6998 46.812 89.2237 45.3171 87.7906C44.6693 87.1696 44.0366 86.5341 43.3879 85.9141L43.0621 85.6055C42.731 85.295 42.2593 84.811 41.7549 84.5181C40.8048 85.0849 39.84 85.6282 38.8984 86.2096C37.5841 87.0212 36.3084 87.8912 35.0525 88.7899C32.6346 90.52 30.3434 92.4577 28.2162 94.5346C24.3151 98.3435 20.9914 102.693 18.0879 107.299L17.8674 107.65C16.2175 110.286 14.6572 113.007 13.5509 115.919C12.3336 119.125 11.7416 122.495 11.42 125.898C11.1008 129.276 10.9931 132.671 10.6364 136.046C10.2705 139.507 9.54975 142.892 8.72989 146.27L8.53435 147.071C7.79251 150.097 7.02682 153.123 6.64549 156.22C6.44191 157.874 6.31946 159.551 6.34714 161.219C6.37494 162.897 6.63854 164.537 6.85121 166.197C6.93271 166.833 6.30695 167.363 5.74703 167.448C5.10307 167.544 4.54984 167.133 4.34967 166.535C3.72568 164.67 3.61233 162.609 3.63192 160.652C3.65163 158.665 3.90524 156.691 4.2621 154.738C4.96394 150.897 6.04702 147.135 6.95306 143.339C7.75156 139.994 8.28748 136.643 8.57635 133.216C8.87622 129.661 9.05578 126.094 9.60282 122.564C10.1428 119.079 11.1588 115.751 12.6909 112.573C14.086 109.68 15.8251 106.957 17.6483 104.318C19.8623 101.113 22.294 98.063 25.0121 95.2842C24.768 95.2736 24.5173 95.1948 24.287 95.0512C23.5827 94.6118 23.2546 93.7524 23.1538 92.9677C22.9177 91.132 22.9747 89.2155 23.4468 87.4207C24.2084 84.5254 26.185 81.9529 29.0497 80.9092C29.7871 80.6406 30.5709 80.5425 31.3524 80.5232C32.0939 80.5047 32.9038 80.6014 33.6193 80.3664C34.7581 79.992 35.2463 78.6508 35.6739 77.634L35.6936 77.5873C36.2419 76.2917 36.9 75.1812 38.0875 74.3722C39.3546 73.5089 40.9421 73.1163 42.4369 72.8628ZM74.8494 77.9867C75.8745 77.6311 77.1561 77.9539 78.1586 78.2645C79.2754 78.6107 80.3074 79.2484 81.1922 80.0057C82.1257 80.8043 82.8971 81.7905 83.4422 82.8921L83.4943 82.9982C83.9921 84.0201 84.559 85.4231 84.308 86.5457C84.3008 86.5776 84.2926 86.6083 84.2832 86.638C86.3171 87.6392 88.1954 88.8932 89.8311 90.4826C91.7357 92.3333 93.3483 94.4392 94.7131 96.7142C100.133 105.75 101.087 116.603 101.728 126.908L101.887 129.52C102.235 135.163 102.642 140.791 103.698 146.355L103.775 146.757C104.905 152.583 106.522 158.453 106.358 164.43C106.309 166.22 103.663 166.208 103.586 164.43C103.297 157.736 101.735 151.273 100.677 144.683C98.8158 133.09 99.7484 121.139 97.1111 109.662C96.0762 105.158 94.473 100.789 92.1836 96.7687C91.0528 94.7826 89.7589 92.8635 88.2433 91.1501C86.9393 89.6758 85.5841 88.257 84.0602 87.0176C83.5732 87.5053 82.6003 87.2568 82.3461 86.5457C82.1714 86.0571 82.2224 85.4858 82.1103 84.9739C82.0063 84.4988 81.8628 84.0279 81.6718 83.5805C81.2909 82.689 80.7319 81.8329 80.0865 81.1114C79.3894 80.3314 78.5881 79.6834 77.6915 79.1484C76.7887 78.6097 75.8015 78.4488 74.8494 78.0552C74.8173 78.0419 74.8143 77.999 74.8494 77.9867ZM78.832 139.943C78.8335 139.896 78.889 139.874 78.9231 139.905C79.2825 140.236 79.4997 140.711 79.7642 141.117C80.0692 141.587 80.3896 142.046 80.7255 142.494C81.3985 143.39 82.1477 144.235 82.9029 145.064C83.6052 145.834 84.3538 146.571 85.1303 147.266C85.9717 148.02 86.9145 148.692 87.6789 149.526C89.2738 151.267 89.5316 153.656 89.868 155.9L89.9049 156.143C90.1101 157.474 90.294 158.809 90.4598 160.146C90.5404 160.796 90.6208 161.447 90.6865 162.099L90.7066 162.305C90.7651 162.944 90.7809 163.591 90.4144 164.149C90.0221 164.745 89.13 164.954 88.5997 164.382C87.6885 163.4 87.8593 161.654 87.7408 160.39C87.6429 159.344 87.5318 158.3 87.4074 157.257L87.3441 156.736C87.1975 155.55 87.0785 154.341 86.8072 153.175C86.568 152.149 86.1122 151.374 85.3643 150.631C84.611 149.882 83.8281 149.182 83.1327 148.376C82.3951 147.52 81.7298 146.603 81.1303 145.646C80.6176 144.827 80.2066 143.936 79.8301 143.046L79.7676 142.897C79.4037 142.029 78.8036 140.899 78.832 139.943ZM91.9882 102.66C91.9962 102.539 92.1751 102.537 92.1778 102.66C92.2004 103.701 92.2221 104.742 92.2437 105.784C92.4176 114.174 92.3105 122.585 93.1523 130.947C93.5493 134.89 94.2805 138.775 95.1265 142.643C95.5594 144.623 96.0136 146.598 96.4451 148.578C96.8657 150.507 97.3167 152.446 97.6503 154.393C97.9781 156.307 98.2717 158.236 98.4035 160.175L98.4197 160.427C98.4765 161.367 98.7473 162.748 98.2302 163.58C97.6699 164.482 96.5972 164.498 95.9968 163.637C95.4331 162.829 95.5732 161.392 95.4736 160.427C95.3724 159.445 95.2654 158.462 95.1438 157.482C94.9066 155.571 94.5941 153.664 94.2691 151.765C93.5922 147.811 92.6103 143.907 91.8856 139.96C91.1428 135.915 90.6149 131.841 90.5926 127.723C90.5705 123.57 91.0101 119.425 91.232 115.28C91.4575 111.071 91.7138 106.866 91.9882 102.66ZM52.3498 76.5609C52.5751 75.8023 53.3702 75.3281 54.1458 75.5411C54.8566 75.7365 55.4435 76.5992 55.1656 77.3373C54.8623 78.1427 54.3323 78.8295 53.8855 79.5616C53.4728 80.238 52.8708 80.7706 52.4504 81.4351L52.9137 81.9345C53.1455 82.1837 53.3779 82.4313 53.6129 82.6747L54.421 83.5117C55.0503 84.1622 55.6836 84.8093 56.3347 85.4372C58.2494 87.284 60.1944 89.0702 62.3387 90.6518C62.8269 91.0117 63.3188 91.3696 63.8246 91.7047L64.0131 91.8296C64.3601 92.0568 64.7472 92.2801 65.1663 92.2416C66.1848 92.1481 67.105 91.0665 67.8048 90.3933L67.8415 90.3583C69.5758 88.708 71.1818 86.9038 72.5859 84.9638C72.8976 84.5328 73.1995 84.0944 73.4934 83.6509C72.8146 82.858 72.9767 81.3101 72.9393 80.3485C72.9129 79.6723 72.9109 78.996 72.9072 78.3193L72.9054 78.1828C72.8971 77.7448 72.8773 77.3248 73.1616 76.9644C73.1781 76.9435 73.2124 76.9442 73.2335 76.9552C73.6228 77.1592 73.7428 77.5007 73.9089 77.8838L73.9262 77.9236C74.1284 78.3835 74.322 78.8476 74.5179 79.3101C74.723 79.7943 74.911 80.2856 75.1016 80.7757C75.1903 81.0037 75.2749 81.2325 75.3577 81.4626C75.4081 81.6096 75.4603 81.7558 75.5139 81.9017L75.5265 81.913C75.5973 81.973 75.6573 82.0364 75.709 82.1019C75.9262 82.2106 76.0988 82.4086 76.1798 82.6995C76.3561 83.3327 75.9913 83.849 75.6659 84.3516C74.3441 86.3937 72.8373 88.3396 71.1625 90.1048C70.3305 90.9817 69.4554 91.8193 68.5443 92.6138L68.385 92.7517C67.5666 93.4551 66.678 94.1213 65.5849 94.2858C64.3058 94.4783 63.2648 93.8421 62.2856 93.1094L62.1879 93.0358C61.2596 92.3331 60.35 91.6057 59.4687 90.8449C57.6719 89.2936 55.9626 87.628 54.4456 85.8006C52.9699 84.0232 51.5112 82.0357 50.6016 79.8969C50.5462 79.7667 50.692 79.6303 50.8062 79.7391C51.2505 80.1621 51.678 80.608 52.1005 81.0596C52.1122 80.3948 51.9895 79.7243 52.0578 79.0554C52.141 78.2422 52.117 77.3439 52.3498 76.5609Z" fill="black"/>
<path fill-rule="evenodd" clip-rule="evenodd" d="M80.7882 36.3896C79.8957 33.1678 80.0233 32.8193 78.6931 29.7419C74.2822 20.8016 44.8054 23.795 41.797 32.7195C40.165 37.5611 40.5484 44.3796 40.1236 48.5779C39.9936 50.8038 39.8659 53.0298 39.7336 55.2555C39.6879 56.0242 39.6416 56.7928 39.5946 57.5613C39.5029 59.0575 39.4137 60.5537 39.3305 62.0504C38.7763 66.6609 41.0885 67.1299 45.0544 66.9934C46.1029 69.5284 47.8011 71.6445 49.8988 73.3663C49.3925 74.7464 51.2285 75.4609 52.2189 76.0127C57.6075 79.0278 64.2265 80.8671 70.1952 79.1716C71.9489 78.6735 79.1913 76.9482 81.4181 71.6072C82.5117 68.9844 84.7346 55.4019 81.8031 43.1839L80.7882 36.3896Z" fill="white"/>
<path fill-rule="evenodd" clip-rule="evenodd" d="M61.9469 15.3745C62.7803 15.2268 63.7123 15.2836 64.1901 16.1037C64.2935 16.2805 64.3591 16.4588 64.3906 16.6345C66.6679 16.1214 69.0323 16.0658 71.3588 16.402C72.0524 16.5017 72.2958 17.4279 71.9906 17.9575C71.9591 18.0119 71.9275 18.0648 71.8935 18.1168C72.6223 18.176 73.3499 18.3024 74.0712 18.4971C74.5844 18.6361 75.0636 19.3021 74.8355 19.848C74.8152 19.896 74.7938 19.944 74.7725 19.9919C75.906 20.1828 76.9892 20.6289 77.9362 21.3492C78.0497 21.4338 78.1543 21.5438 78.2413 21.6689C80.3585 21.4299 82.5388 21.8685 84.429 22.8921C84.9586 23.1788 85.2146 24.0054 84.8552 24.521C84.743 24.6814 84.6257 24.8344 84.4996 24.9822C85.3218 25.2867 86.0494 25.7794 86.5399 26.582C87.0733 27.4526 87.2372 28.5735 86.951 29.5314C87.5487 30.1417 87.8614 31.0767 87.6483 32.0143C87.4541 32.8699 86.9308 33.4132 86.26 33.7393C86.3962 34.1563 86.2864 34.6302 85.9775 34.9523C85.5034 35.4464 84.9359 35.8255 84.318 36.0746C84.3168 36.2351 84.2764 36.4006 84.1957 36.5548C83.6384 37.6262 82.4366 38.3378 81.2147 38.4452C81.6258 40.175 81.9638 41.9266 82.2916 43.6679C82.8743 46.7651 83.3256 49.8927 83.6005 53.0327L83.6339 53.4211C84.0817 58.7345 84.1858 64.301 83.1075 69.5425C82.4202 72.8799 80.3371 75.6928 77.5579 77.5984C74.732 79.5367 71.2794 80.501 67.8823 80.6537C66.1497 80.731 64.4008 80.5842 62.7035 80.228C61.8976 80.0587 61.1196 79.8186 60.3542 79.5128C59.5307 79.183 58.8524 78.6965 58.1563 78.1493C57.7944 77.865 58.0013 77.194 58.4299 77.1092C58.7363 77.0474 59.0389 76.9804 59.3441 76.9248C59.6241 76.8729 59.9293 77.1535 59.8712 77.4126L60.4616 77.5649C60.6584 77.6158 60.8551 77.6671 61.0513 77.7199L61.3453 77.8004C62.1813 78.0343 63.0363 78.2313 63.8938 78.3717C65.639 78.656 67.4548 78.6624 69.2088 78.4412C72.1583 78.071 75.1708 77.0171 77.4646 75.0748C78.5894 74.122 79.5263 72.9936 80.2059 71.6832C81.0697 70.0188 81.3308 68.165 81.5476 66.324C82.1744 61.0002 81.9814 55.6688 81.4947 50.3438C81.2526 47.6952 80.9222 45.0516 80.5716 42.4143C80.3913 41.0622 80.1971 39.7076 80.0371 38.3504C79.6801 38.2544 79.3396 38.0952 79.0345 37.8639C78.8277 37.7072 78.7066 37.5251 78.6537 37.3395C78.3455 37.2813 78.0502 37.1118 77.8374 36.8253L77.8101 36.7873C77.2514 35.9772 76.2857 35.5135 75.3915 35.1761C74.8493 34.9714 74.2969 34.7931 73.7472 34.6113C73.1747 34.4205 72.5694 34.1387 71.9679 34.0654C71.2857 33.9845 70.5985 34.1905 69.91 34.1172C69.2845 34.0489 68.7335 33.8239 68.2834 33.3741C68.1258 33.2175 67.9895 33.0367 67.881 32.8421C65.7815 33.2919 63.576 32.7246 61.3945 32.8611C59.9595 32.9521 58.6934 33.8417 57.2433 33.8177C56.8473 33.8114 56.464 33.6724 56.1853 33.4285C54.8173 33.6901 53.4263 34.1929 52.1401 34.625C50.869 35.0523 49.6458 35.6272 48.3899 36.0935C48.3886 36.0948 48.3886 36.0948 48.3886 36.0961C48.2247 36.6281 47.7354 36.8579 47.2146 36.7645C45.511 36.46 44.076 35.3832 42.4178 34.9891C41.9613 36.6559 41.4708 38.301 41.1355 40.0008C40.7962 41.7155 40.5579 43.4531 40.4002 45.1944C40.2414 46.942 40.1657 48.7074 40.1619 50.4613C40.1606 51.356 40.1833 52.2531 40.2136 53.1477C40.2381 53.8973 40.3806 54.845 40.1104 55.5658L40.0863 55.627H40.085C40.0522 55.732 39.9047 55.7952 39.8214 55.6979C39.3133 55.1064 39.1922 54.1651 39.051 53.4219C38.8795 52.5198 38.7698 51.6087 38.6816 50.695C38.505 48.8614 38.4659 47.0355 38.5592 45.1944C38.742 41.5702 39.3221 37.7425 40.5604 34.3168C40.1796 34.3521 40.0093 33.7899 39.9841 33.4727C39.9359 32.8353 40.0355 32.1589 40.1435 31.5196L40.2564 30.8578C40.3634 30.2331 40.4767 29.6247 40.689 29.0171C41.1986 27.5587 41.9311 26.189 42.844 24.9443C44.7065 22.4056 47.2879 20.4835 50.2271 19.3754C50.4112 19.3059 50.5853 19.3071 50.7391 19.3601C53.4137 17.9158 56.2887 16.8038 59.2092 16.0128C60.1121 15.7689 61.0263 15.5389 61.9469 15.3745ZM39.7357 56.1186C40.9501 55.3555 43.4557 55.1559 44.1328 56.7821C44.1606 56.8478 44.0824 56.9059 44.0244 56.8907L43.8587 56.8488C43.2221 56.6907 42.6721 56.5999 42.0194 56.8618C41.4456 57.0918 40.8883 57.4518 40.5087 57.9472C39.6115 59.1186 39.5142 60.7099 39.5979 62.1309L39.6021 62.1995C39.6802 63.4466 39.9993 64.9655 41.2161 65.5822C41.8328 65.8943 42.4998 65.8716 43.1694 65.8665C43.9323 65.8614 44.7116 65.9448 45.4405 66.18C45.8478 66.3113 46.0394 66.8521 45.7015 67.1695C45.5893 67.2743 45.472 67.3728 45.3484 67.4612C45.7179 67.8556 46.081 68.2549 46.4329 68.6757C47.0293 69.3896 47.6636 70.0795 48.3256 70.7328C48.9662 71.3634 49.6446 71.9738 50.376 72.4969C51.1452 73.0455 52.0657 73.4307 52.7315 74.103C53.1653 74.5404 53.0909 75.1506 52.7315 75.5929C51.8393 76.6921 50.3208 75.5365 49.4677 74.8865L49.3647 74.8081C48.4782 74.1359 47.6358 73.4105 46.9183 72.5563C46.187 71.6844 45.5539 70.7569 45.0861 69.7169C44.8112 69.1053 44.6359 68.5279 44.5414 67.9239C43.008 68.5911 41.0749 68.3786 39.7004 67.4397C37.8758 66.1938 37.3638 63.9067 37.3574 61.819L37.3576 61.6952C37.3711 59.666 37.9031 57.2703 39.7357 56.1186ZM43.1951 59.0598L43.2513 59.0605C43.9266 59.0751 44.5289 59.3189 45.1025 59.6547L45.1617 59.6898C45.7191 60.0221 46.5186 60.2886 46.8136 60.9105C46.9902 61.2858 46.9776 61.7154 46.6699 62.0262C46.1125 62.5899 45.2714 62.4964 44.6687 62.0565C44.2185 61.7268 43.9222 61.2327 43.4808 60.899C42.6511 60.2698 41.3422 60.3052 40.4785 60.8498C40.4255 60.8839 40.3739 60.8195 40.3977 60.769C40.9281 59.6813 41.9793 59.0556 43.1951 59.0598Z" fill="black"/>
<path fill-rule="evenodd" clip-rule="evenodd" d="M74.9202 68.2506C74.1186 67.8648 73.2018 67.8915 72.3611 68.1466C71.3662 68.4489 70.4851 69.0767 69.7011 69.745C69.3951 70.0059 69.1044 70.3004 68.8125 70.5965C68.4418 70.9727 68.0697 71.3525 67.6567 71.6605C67.7929 70.5001 68.6071 69.3217 69.3064 68.4694C70.1643 67.4239 71.3589 66.5766 72.6504 66.1667C74.0257 65.7302 75.4449 65.9701 76.5587 66.6789C77.6623 67.3812 78.4662 68.5444 78.6281 69.9669C78.6622 70.2658 78.5225 70.5393 78.3153 70.7465C78.0735 70.9883 77.7341 71.1474 77.4176 71.1474C77.0945 71.1474 76.8081 71.0173 76.5956 70.8099C76.3727 70.5923 76.2304 70.2905 76.2101 69.9625C76.1964 69.6131 76.1155 69.3069 75.8218 68.9382C75.6245 68.6907 75.2536 68.411 74.9202 68.2506ZM76.9581 56.0383C76.6255 56.1593 76.2391 56.4512 76.1268 56.7709C76.102 56.8413 76.0882 56.9133 76.087 56.9862C75.9787 56.7661 75.9375 56.507 75.9516 56.2506C75.9965 55.436 76.7733 54.8448 77.4352 54.4994C77.6703 54.3766 77.9119 54.295 78.1527 54.2521L79.0051 54.1001L78.2048 53.7697C77.4667 53.465 76.7747 53.0458 76.1571 52.5327C75.5671 52.0429 75.0217 51.4094 74.7016 50.7104C74.557 50.3947 74.4436 50.0859 74.364 49.7523L74.3427 49.6586C74.3036 49.4789 74.2609 49.3872 74.2128 49.2855C74.1847 49.2258 74.1541 49.1616 74.1212 49.0571C74.1027 48.9984 74.0924 48.9493 74.1096 48.911C74.1262 48.874 74.1667 48.8581 74.2062 48.8432C74.4675 48.7443 74.8883 48.8117 75.067 48.8831C75.4991 49.0558 75.8787 49.4323 76.2442 49.7849C76.4226 49.957 76.5972 50.1251 76.7707 50.2689C77.8776 51.1865 79.2591 51.7087 80.6092 51.836L80.6903 51.8432C81.0474 51.8725 81.3784 52.0131 81.613 52.2477C81.8228 52.4574 81.9522 52.7428 81.9522 53.0845C81.9522 53.4173 81.8025 53.7378 81.5699 53.9705C81.3477 54.1926 81.0471 54.3366 80.7208 54.3251C80.4916 54.3169 80.2642 54.2964 80.0382 54.2661L79.1979 54.1536L79.8395 54.7078C79.9668 54.8179 80.0866 54.9441 80.1943 55.0907C80.7789 55.8867 81.0298 57.1003 81.0081 58.0745C81.004 58.2604 80.9526 58.4522 80.8578 58.6174C80.775 58.7617 80.6587 58.8863 80.5086 58.964C80.329 59.0572 80.177 59.1069 79.9724 59.1109C79.75 59.1153 79.5617 59.0449 79.4069 58.9271C79.2133 58.7797 79.071 58.5623 78.9734 58.3251C78.8436 58.0098 78.8358 57.6767 78.823 57.3438C78.8141 57.1137 78.8045 56.8832 78.7662 56.6561C78.7115 56.3661 78.5804 55.9965 78.4149 55.8798C78.1707 55.7074 77.5209 55.8402 77.1173 55.9812L76.9581 56.0383ZM73.4863 58.9529C74.4405 59.5329 75.8944 60.8855 74.8679 62.3234C73.6596 63.5913 71.9199 62.1376 71.0625 61.4801C70.2676 60.9706 69.3745 62.2811 70.112 62.876C76.3069 67.4625 78.8209 59.1046 73.9689 58.271C73.4347 58.1791 73.2362 58.7735 73.4863 58.9529ZM66.718 57.1116C66.4572 56.8174 66.2033 56.5432 65.811 56.3871C65.3468 56.202 64.7845 56.1822 64.3017 56.3208C63.7543 56.4779 63.321 56.8408 62.9999 57.3043C62.7178 57.7115 62.5235 58.1962 62.4128 58.6741C62.206 58.447 62.1093 58.1844 62.0626 57.9173C61.9857 57.4775 62.0402 57.0243 62.1901 56.5933C62.5238 55.6337 63.3278 54.7807 64.2652 54.4135C65.3356 53.9942 66.66 54.1342 67.6432 54.7245C68.1448 55.0258 68.723 55.5486 69.0142 56.0599C69.2132 56.4094 69.2246 56.7712 69.0982 57.082C68.959 57.4241 68.6586 57.702 68.2751 57.8415C68.0935 57.9075 67.9065 57.9023 67.7291 57.8554C67.4982 57.7943 67.2825 57.6639 67.1066 57.5121C66.96 57.3857 66.8378 57.2468 66.718 57.1116ZM68.3173 51.06C68.0976 51.354 67.774 51.5042 67.437 51.5199C67.4024 51.5215 67.3678 51.5217 67.3334 51.5205C67.3117 51.5455 67.2874 51.5731 67.2589 51.6056C67.193 51.6806 67.1499 51.7298 67.1051 51.7775C66.943 51.9501 66.7727 52.1148 66.5951 52.2715C66.1998 52.6208 65.774 52.9272 65.3135 53.1843C64.5069 53.6349 63.6222 53.9864 62.7125 54.1541C61.8098 54.3206 60.9187 54.3717 60.0097 54.2414L59.7892 54.2097C59.2641 54.1327 58.5757 54.0324 58.1445 53.7071C58.3143 53.653 58.4864 53.6504 58.6542 53.643C58.7646 53.6381 58.8744 53.6331 58.9814 53.6234C59.4901 53.5771 59.9845 53.4927 60.4771 53.3563C61.4346 53.0913 62.3023 52.7254 63.1477 52.201C63.9765 51.6869 64.7376 50.9873 65.344 50.221L65.4166 50.1281C65.4476 50.088 65.4781 50.0482 65.5083 50.0086C65.7564 49.6845 65.9842 49.3756 66.3695 49.17C66.6749 49.0071 66.9838 48.963 67.2809 49.0099C67.6256 49.0643 67.9528 49.2378 68.2429 49.4807C68.4573 49.6602 68.5566 49.9188 68.5724 50.1839C68.591 50.4959 68.496 50.8208 68.3173 51.06Z" fill="black"/>
</g>
</svg>
