<svg width="120" height="120" viewBox="0 0 120 120" fill="none" xmlns="http://www.w3.org/2000/svg">
<circle opacity="0.5" cx="60" cy="60" r="60" fill="#FAD06A"/>
<mask id="mask0" mask-type="alpha" maskUnits="userSpaceOnUse" x="0" y="0" width="120" height="120">
<circle cx="60" cy="60" r="59.5" fill="#C4C4C4" stroke="black" stroke-linecap="round" stroke-linejoin="round"/>
</mask>
<g mask="url(#mask0)">
<circle cx="60" cy="60" r="60" fill="#4A3636"/>
<path d="M39.8002 51.4C41.7202 49 46.6002 48.8 48.8002 49L56.0004 50.8C57.0005 56.5 61.4005 67.8 65.0005 69C67.4005 69.8 74.0004 58.6 74.0004 57.4L78.8004 60.4L84.8004 65.2C92.0004 71.2 90.2004 94.6 89.0004 101.2C88.0404 106.48 82.2004 106.6 79.4004 106C78.8004 108 77.2404 112.36 75.8004 113.8C74.3604 115.24 74.0004 116.2 73.4004 118C73.4004 118 62.2845 126.184 54.2004 125.8C46.6634 125.442 36.8004 117.4 36.8004 117.4C36.8004 113.139 38.4143 109.281 39.9866 106.528C38.2332 108.747 35.6745 110.868 32.0002 110.2C25.4002 109 32.0002 84.4 33.2002 79C34.4002 73.6 34.4002 64.6 34.4002 62.8C34.4002 61 37.4002 54.4 39.8002 51.4Z" fill="white"/>
<path d="M58.5 50L55.5 51C57.1667 56.6667 61.4 68.2 65 69C68.6 69.8 72.5 61.6667 74 57.5L73.5 54L58.5 50Z" fill="white"/>
<path d="M81.7999 14.1998C79.9999 11.1998 77.5999 6.3998 62.5999 5.7998C52.4001 6.9998 49.9999 16.5998 48.1999 25.5998C46.3999 34.5998 57.1999 42.9998 58.3999 45.9998C59.5999 48.9998 58.3999 58.5998 66.7999 58.5998C75.1999 58.5998 75.1999 46.5998 75.7999 44.1998C76.3999 41.7998 79.3999 36.9998 81.7999 33.3998C84.1999 29.7998 83.5999 17.1998 81.7999 14.1998Z" fill="white"/>
<path d="M84.201 17.7999C82.761 17.3199 83.601 20.7999 84.201 22.5999V29.7999C84.201 32.1999 78.8012 40.5999 77.0012 43.5999C75.2012 46.5999 80.0012 66.9999 81.8012 66.9999C83.2412 66.9999 84.0011 65.3998 84.201 64.5998C83.6011 62.5998 82.1611 57.3999 81.2011 52.5998C80.0011 46.5999 87.2011 37.5999 87.8011 34.5999C88.4011 31.5999 86.001 18.3999 84.201 17.7999Z" fill="white"/>
<path d="M53.6008 63.3998C54.8008 64.5998 56.6008 67.4799 54.2008 69.3998C51.2008 71.7999 47.6008 69.3998 47.6008 68.1999C47.6008 67.2398 48.4008 66.9999 48.8008 66.9999C48.8008 63.9999 50.6008 53.1999 48.8008 47.1999C47.0008 41.1999 44.0008 39.3999 44.0008 37.5999C44.0008 35.7999 42.8008 23.7998 42.8008 23.1999C42.8008 22.5999 44.0008 17.7999 45.8008 17.7999C47.6008 17.7999 45.8008 21.3999 45.8008 23.1999C45.8008 24.9999 47.6008 34.5999 48.8008 35.7999C50.0008 36.9999 54.8008 41.1999 56.0008 44.7999C56.9608 47.6799 55.2008 58.1999 53.6008 63.3998Z" fill="white"/>
<path d="M81.7999 14.1998C79.9999 11.1998 77.5999 6.3998 62.5999 5.7998C52.4001 6.9998 49.9999 16.5998 48.1999 25.5998C46.3999 34.5998 57.1999 42.9998 58.3999 45.9998C59.5999 48.9998 58.3999 58.5998 66.7999 58.5998C75.1999 58.5998 75.1999 46.5998 75.7999 44.1998C76.3999 41.7998 79.3999 36.9998 81.7999 33.3998C84.1999 29.7998 83.5999 17.1998 81.7999 14.1998Z" stroke="black" stroke-width="2" stroke-linecap="round" stroke-linejoin="round"/>
<path d="M62.9985 34.7871C63.4973 34.1807 62.5185 33.3756 62.528 32.3667C62.0386 31.9641 60.5328 34.7924 61.0221 35.1949C61.5115 35.5974 62.4997 35.3935 62.9985 34.7871Z" fill="#1D1D1D"/>
<path d="M67.4904 32C68.2796 33 69.6213 35 68.6743 35C67.4904 35 66.3065 32 67.4904 32Z" fill="#1D1D1D"/>
<path d="M55 28C55 28.7071 55 29.4142 55.7842 28.7071C56.4116 28.1414 55.5228 28 55 28Z" fill="#1D1D1D"/>
<path d="M71.6171 26C74.3686 26 74.3686 28 73.4514 28C72.5343 28 69.7827 28 71.6171 26Z" fill="#1D1D1D"/>
<path d="M64.4003 38.7998C63.2003 38.7998 62.0002 40.5998 63.2001 44.1998C64.0667 48.1036 65.8819 49.1589 67.4001 48.3998C68.6001 47.7998 68.6001 45.3998 68.0001 43.5998C67.4001 41.7998 67.4003 38.7998 64.4003 38.7998Z" stroke="black" stroke-width="2" stroke-linecap="round" stroke-linejoin="round"/>
<path d="M48.8008 66.9999C49.6008 67.9999 50.6147 68.7906 52.4008 67.5999C54.2008 66.3999 54.0008 63.7999 53.6008 63.3999M48.8008 66.9999C48.4008 66.9999 47.6008 67.2399 47.6008 68.1999C47.6008 68.5477 47.9033 68.9965 48.4061 69.3999M48.8008 66.9999C48.8008 63.9999 50.6008 53.1999 48.8008 47.1999C47.0008 41.1999 44.0008 39.3999 44.0008 37.5999C44.0008 35.7999 42.8008 23.7998 42.8008 23.1999C42.8008 22.5999 44.0008 17.7999 45.8008 17.7999C47.6008 17.7999 45.8008 21.3999 45.8008 23.1999C45.8008 24.9999 47.6008 34.5999 48.8008 35.7999C50.0008 36.9999 54.8008 41.1999 56.0008 44.7999C56.9608 47.6799 55.2008 58.1999 53.6008 63.3999M53.6008 63.3999C54.8008 64.5999 56.6008 67.4799 54.2008 69.3999M54.2008 69.3999C52.0705 71.1041 49.6376 70.388 48.4061 69.3999M54.2008 69.3999L53.0008 75.3999M48.4061 69.3999L47.6008 72.9999M84.201 22.5999C83.601 20.7999 82.761 17.3199 84.201 17.7999C86.001 18.3999 88.4011 31.5999 87.8011 34.5999C87.2011 37.5999 80.0011 46.5999 81.2011 52.5999C82.1611 57.3999 83.6011 62.5999 84.201 64.5999C86.6008 66.9999 84.2008 71.1999 83.6008 72.3999C81.8008 72.3999 75.2012 46.5999 77.0012 43.5999C78.8012 40.5999 84.201 32.1999 84.201 29.7999C84.201 27.8799 84.201 24.1999 84.201 22.5999Z" stroke="black" stroke-width="2" stroke-linecap="round" stroke-linejoin="round"/>
<path d="M48.8002 49C46.6002 48.8 41.7202 49 39.8002 51.4C37.4002 54.4 34.4002 61 34.4002 62.8C34.4002 64.6 34.4002 73.6 33.2002 79C32.0002 84.4 25.4002 109 32.0002 110.2C38.6002 111.4 41.6004 103.6 42.8004 102.4M42.8004 102.4C44.0004 101.2 36.8004 108.4 36.8004 117.4M42.8004 102.4C45.6004 96 52.4004 85 53.6004 75.4C49.2578 76.5155 47.7434 75.8444 47.0004 71.8C44.0004 74.2 42.0804 78.04 41.6004 79M73.4004 118C74.0004 116.2 74.3604 115.24 75.8004 113.8C77.2404 112.36 78.8004 108 79.4004 106M79.4004 106C82.2004 106.6 88.0404 106.48 89.0004 101.2C90.1314 94.9792 91.7955 73.8334 85.9541 66.4M79.4004 106C78.2004 106 75.8004 102.4 75.8004 100.6C75.8004 99.1301 74.6 79.6535 77.7543 70.6M84.8004 65.2C85.2141 65.5448 85.598 65.9469 85.9541 66.4M74.0004 57.4C74.0004 58.6 67.4004 69.6 65.0004 68.8C61.4004 67.6 58.3366 59.2261 56.0004 50.8L59.0004 50.2M74.0004 57.4L78.8004 60.4M74.0004 57.4L73.4004 55.6M80.6004 66.4C79.3903 67.0601 78.4625 68.5674 77.7543 70.6M77.7543 70.6C78.703 73.4 81.0804 78.04 83.0004 74.2C84.9204 70.36 85.7695 67.4 85.9541 66.4" stroke="black" stroke-width="2" stroke-linecap="round" stroke-linejoin="round"/>
</g>
</svg>
