<svg width="120" height="120" viewBox="0 0 120 120" fill="none" xmlns="http://www.w3.org/2000/svg">
<circle opacity="0.5" cx="60" cy="60" r="60" fill="#FAD06A"/>
<mask id="mask0" mask-type="alpha" maskUnits="userSpaceOnUse" x="0" y="0" width="120" height="120">
<circle cx="60" cy="60" r="60" fill="white"/>
</mask>
<g mask="url(#mask0)">
<circle cx="60" cy="60" r="60" fill="#494444"/>
<path fill-rule="evenodd" clip-rule="evenodd" d="M10.8163 158.713C27.4114 161.234 44.3075 161.361 61.0404 160.445C67.6627 159.949 74.3053 159.86 80.9222 160.494C84.8322 160.785 101.975 162.095 103.376 158.593C102.495 139.945 100.709 121.139 95.2319 103.204C92.9793 96.8361 91.0447 91.5507 86.6483 86.2809C85.2628 84.8421 82.2746 81.8245 80.5625 80.8403C79.0791 79.9879 78.4592 80.292 77.6074 78.8521C76.761 77.2614 76.1367 74.6048 74.9349 73.4823C73.7113 72.3395 71.8978 72.7484 69.6502 73.1165C70.0631 67.5362 67.4873 66.115 63.9387 65.0539C57.7012 62.6733 51.541 63.8692 49.9711 71.4624C47.0602 71.4624 45.4251 72.715 43.6575 73.9187C42.9349 74.4107 43.4375 75.6643 42.5744 76.051C40.9775 76.6195 38.1556 76.4803 36.618 77.18C29.6261 80.3619 23.3987 84.9762 19.309 91.715C10.1404 106.103 3.84223 136.41 4.93209 153.463C4.45459 154.211 5.1149 155.285 5.28274 156.09C5.4946 156.791 6.18066 157.257 6.89666 157.177C7.89582 158.251 9.44124 158.491 10.8163 158.713Z" fill="white"/>
<path fill-rule="evenodd" clip-rule="evenodd" d="M45.3415 72.6028C46.364 71.536 47.9673 70.8992 49.4856 70.935L49.5567 70.9372L50.0722 70.9603L49.7278 72.65L49.7104 72.7301L49.6402 73.0235L49.5466 73.4076L49.5134 73.5488L49.4783 73.7051C49.4727 73.7305 49.4673 73.7556 49.4621 73.7804L49.4467 73.8544L49.2998 74.5723L49.3273 74.6361L49.3193 74.7993C49.2966 75.389 49.4236 75.7131 49.7035 75.8171L49.7259 75.8249L49.8856 75.8761L50.0159 76.1588C50.3157 76.8054 50.5955 77.3702 50.8826 77.9021C51.7202 79.4534 52.7194 81.0043 53.8715 82.5628C54.9661 84.0437 56.1064 85.4572 57.292 86.7994C57.8251 87.4029 58.3882 88.0088 58.9875 88.6257L59.5034 89.154L59.6675 89.3201L59.7779 89.4302L59.9155 89.565L60.1139 89.7541L60.2577 89.8956L60.3043 89.9399C60.3629 89.9944 60.4082 90.0313 60.4491 90.0575L60.4643 90.0668L60.5097 90.0938L62.9015 92.6093L63.7463 93.0737L64.1474 93.2961L64.2287 93.1344L64.2451 93.0824L65.1342 91.1302L65.677 89.9345C66.7911 87.4746 67.658 85.5176 68.4507 83.6543L68.5494 83.4219L68.8416 82.7286L68.9963 82.3587C69.7049 80.6608 70.2283 79.3503 70.6967 78.0774L70.7633 77.8957L70.8619 77.6238L71.0085 77.2135L71.0351 77.1435C71.1623 76.8178 70.8498 75.6339 70.5419 74.9854L70.5245 74.9493L70.4445 74.7886L70.3579 74.6191C70.1543 74.2219 70.0069 73.781 69.8829 73.2472C69.8628 73.1608 69.8439 73.0738 69.8262 72.9861L69.8004 72.8539L69.784 72.7672L69.7612 72.6457L69.7285 72.4718L70.4174 72.3566L70.7953 72.295L70.9601 72.2692C71.1737 72.2362 71.3638 72.2091 71.5427 72.1864L71.6093 72.1781L71.7291 72.1639L71.7333 72.1876L71.9791 72.2118L72.1616 72.2307C73.0605 72.3257 73.7539 72.4305 74.2462 72.5466L74.2948 72.5582L74.3827 72.5804L74.4229 72.591C74.8707 72.7116 75.2158 72.9721 75.4889 73.3562C75.6762 73.6197 75.7978 73.8721 75.9902 74.3504L76.0592 74.523L76.2882 75.0891C76.315 75.1581 76.3564 75.2681 76.4124 75.4196L76.6068 75.9486L77.5806 78.638L78.5773 79.1624C79.0406 79.4047 79.3794 79.5795 79.5468 79.6622L79.6062 79.6911L79.6486 79.7105L79.9921 79.8466L79.9552 79.9538L79.9967 79.9776C84.0999 82.3379 87.2641 85.9688 89.7276 90.7893L89.8021 90.9357L89.8783 91.0874C91.8418 95.0139 93.2484 99.3956 94.6219 105.246L94.7068 105.609L94.7737 105.899L95.1317 107.46C96.4772 113.354 97.4017 117.749 98.1669 122.062L98.2165 122.343L98.3441 123.076C99.3049 128.658 100.109 134.19 100.753 139.667L100.86 140.589C101.129 142.943 101.371 145.376 101.635 148.297L101.67 148.69L101.786 150.002C101.909 151.416 102.022 152.827 102.124 154.235L102.174 154.939L102.277 156.469L102.338 157.341L102.345 157.459L102.37 157.914L102.377 158.021C102.386 158.157 102.396 158.273 102.409 158.379L102.42 158.458L102.431 158.534C102.465 158.742 102.533 158.929 102.644 159.137L102.672 159.189L102.863 159.53L102.517 159.713C100.715 160.662 97.1666 161.08 92.2987 161.102H92.1507H91.8464C89.481 161.101 86.974 161.009 84.3582 160.854L83.7665 160.817L83.2728 160.786C83.0601 160.772 82.8531 160.758 82.6385 160.743L82.3092 160.72L80.9337 160.619C74.7467 160.027 68.2583 160.037 61.1091 160.572C42.47 161.591 26.3821 161.161 11.2609 158.904L10.803 158.835L10.4655 158.78L10.2643 158.747C8.66034 158.473 7.65322 158.122 6.86737 157.386L6.82622 157.346L6.79191 157.313L6.77704 157.313C5.98578 157.31 5.26141 156.792 4.99263 156.029L4.97867 155.988L4.96094 155.931L4.9487 155.874C4.93618 155.819 4.92054 155.76 4.90154 155.695L4.88664 155.645L4.76172 155.236L5.18256 155.159C5.21881 155.153 5.25652 155.127 5.29309 155.074L5.32814 155.024L5.38883 154.94L5.53542 154.739C5.69156 154.52 5.76838 154.383 5.80645 154.245C5.84012 154.122 5.85274 153.966 5.84909 153.748L5.84626 153.641L5.82968 153.255C5.8286 153.224 5.82786 153.197 5.82738 153.171L5.82686 153.132L5.82659 152.589L5.82793 151.991C5.8289 151.731 5.83037 151.476 5.83237 151.227L5.83577 150.856L5.83916 150.556C5.85942 148.902 5.90799 147.248 5.98486 145.598C6.13513 142.375 6.39289 139.157 6.75754 135.951C7.51046 129.332 8.66374 122.913 10.2326 116.709L10.3902 116.09C12.0865 109.46 13.722 104.349 15.8008 99.623C18.4447 93.6118 21.6685 88.6644 25.7275 84.7093C27.9591 82.5345 30.4306 80.6991 33.057 79.2913C34.2649 78.6438 35.5486 78.0693 36.9253 77.5524L37.1226 77.479L37.4411 77.3626L37.6854 77.2725L38.4726 76.9783C38.6381 76.9163 38.8182 76.8469 39.0311 76.7632L39.163 76.7112L40.5727 76.1488L40.8068 76.0567L41.0671 75.9555L41.2584 75.882C41.5712 75.7627 41.8545 75.6586 42.1175 75.5668L42.2729 75.5132L42.414 75.4658L43.0156 75.2576L43.0039 75.8049C42.9961 76.1687 43.0898 76.4438 43.298 76.6413L43.305 76.6476L43.3122 76.6533L43.3186 76.6575L43.3551 76.6565L43.4972 76.6559C43.5119 76.6478 43.5257 76.6383 43.5386 76.6274C43.7409 76.4555 43.835 76.2251 43.9263 75.6967L43.9505 75.5497L43.9927 75.2742L44.0095 75.17C44.0703 74.8033 44.1233 74.6008 44.2264 74.3691C44.3754 74.0342 44.5723 73.7081 44.8041 73.4084L44.8582 73.3397L45.0746 73.0794L45.1078 73.0384C45.1837 72.9412 45.2226 72.8726 45.2389 72.8096L45.2428 72.7926L45.2644 72.6833L45.3415 72.6028Z" fill="white"/>
<path fill-rule="evenodd" clip-rule="evenodd" d="M79.5063 80.418C79.4044 80.3612 79.4941 80.2157 79.5965 80.2638C84.5181 82.5726 88.2936 86.6233 90.9502 91.3035C93.701 96.1496 95.2689 101.652 96.6206 107.03L96.6693 107.224C98.1107 112.977 99.3362 118.789 100.44 124.616C101.557 130.516 102.454 136.453 103.175 142.415C103.532 145.362 103.851 148.315 104.099 151.274C104.223 152.753 104.335 154.232 104.437 155.713C104.477 156.305 104.515 156.897 104.548 157.489L104.571 157.934C104.591 158.337 104.639 158.741 104.54 159.139C104.454 159.482 104.272 159.792 104.113 160.107C103.797 160.729 102.931 160.626 102.591 160.107L102.492 159.955C102.266 159.607 102.079 159.283 102.008 158.849C101.94 158.428 101.937 157.988 101.906 157.563C101.85 156.782 101.802 156 101.747 155.219C101.632 153.574 101.502 151.931 101.359 150.288C101.075 147.046 100.771 143.806 100.398 140.573C99.7348 134.826 98.9024 129.095 97.9212 123.394C96.9624 117.825 95.7504 112.312 94.4859 106.807L94.3549 106.237C92.141 96.6249 88.7289 85.555 79.5063 80.418ZM27.085 118.058C27.1212 117.962 27.2769 117.94 27.3032 118.058C27.6347 119.551 27.6675 121.088 27.7182 122.616C27.7681 124.124 27.7661 125.638 27.7441 127.147C27.6631 132.69 27.5109 138.229 27.3793 143.772C27.3135 146.545 27.2518 149.318 27.2044 152.091C27.1865 153.131 27.1714 154.171 27.1589 155.211L27.1436 156.583C27.136 157.189 27.1201 157.788 27.0461 158.394C26.9973 158.792 26.8934 159.172 26.6734 159.514C26.5173 159.757 26.2948 159.88 26.0779 160.044L26.0373 160.076C25.7606 160.294 25.4692 160.296 25.1952 160.076L25.1157 160.013C24.854 159.808 24.6278 159.648 24.4607 159.325C24.2282 158.874 24.191 158.386 24.1515 157.89C24.0915 157.138 24.1313 156.375 24.139 155.621C24.1545 154.108 24.1755 152.595 24.202 151.082C24.2995 145.535 24.492 139.987 24.843 134.449C25.0084 131.841 25.2325 129.224 25.5333 126.627L25.5905 126.14C25.6817 125.376 25.7649 124.598 25.8587 123.817C24.4593 122.833 23.2292 121.639 22.1802 120.284C22.103 120.184 22.2301 120.044 22.3234 120.141C23.3952 121.251 24.6241 122.135 25.9847 122.831C26.2076 121.197 26.5141 119.572 27.085 118.058ZM50.4641 68.6094C50.4833 68.5945 50.5133 68.588 50.5316 68.6094C50.8324 68.9601 50.7714 69.4962 50.7811 69.9406L50.7822 69.982C50.8038 70.6317 50.8078 71.2794 50.8057 71.9295L50.799 73.9989C50.7981 74.2834 50.775 74.5796 50.7896 74.8658L50.7972 74.9766C50.9552 75.1384 51.0286 75.3723 50.975 75.6072C50.9654 75.9085 50.8079 76.1598 50.5781 76.3179L51.0706 77.0166L51.5635 77.7149C52.5796 79.156 53.6068 80.5842 54.6774 81.9857C55.769 83.4146 56.9336 84.7896 58.1523 86.1117C58.7476 86.7577 59.3532 87.3948 59.9728 88.0176C60.2246 88.2707 60.4827 88.5175 60.7379 88.7671L60.9918 89.018C61.1418 89.168 61.3305 89.3164 61.4301 89.5065C61.4887 89.6187 61.502 89.8951 61.523 89.9408C61.711 90.354 61.3902 91.0129 60.8573 90.8068L60.8814 90.7907C60.9785 90.7232 60.9163 90.7222 60.6948 90.7878C60.5551 90.7874 60.424 90.7552 60.3017 90.6915L60.2652 90.6715C60.0928 90.5839 59.939 90.4144 59.7989 90.2788L59.7642 90.2457C59.444 89.9457 59.1387 89.6275 58.8318 89.3138C58.1913 88.6595 57.5652 87.9913 56.959 87.3051C55.7497 85.936 54.6033 84.5114 53.5177 83.0426C52.4118 81.5467 51.3839 79.9739 50.4999 78.3365C50.1645 77.7151 49.8569 77.0818 49.5621 76.4411C48.9882 76.2569 48.855 75.6465 48.895 74.9589C48.6832 74.4658 48.4925 73.9626 48.3797 73.4484C48.3643 73.3779 48.4549 73.3114 48.5091 73.3731C48.6926 73.5816 48.8626 73.8037 49.026 74.0314C49.1245 73.5494 49.2493 73.1057 49.3079 72.8228L49.5624 71.5744C48.1287 71.4997 46.5576 72.0887 45.5692 73.1199C45.5161 73.3884 45.3095 73.5806 45.108 73.8316C44.8779 74.1186 44.677 74.4406 44.5273 74.7773C44.1951 75.5237 44.3826 76.6236 43.7379 77.1712C43.6707 77.2282 43.5957 77.2679 43.5182 77.2924C43.8241 78.7923 43.6853 80.445 43.6786 81.9666L43.6784 82.1005C43.6799 83.8035 43.623 85.5079 43.5572 87.2096L43.4902 88.8936C43.4035 91.1397 43.3472 93.3868 43.5654 95.6205C44.5619 94.7379 45.5924 93.8956 46.6582 93.0932C47.3591 92.5654 48.0739 92.0565 48.8018 91.5666L49.3932 91.1714C50.1019 90.6962 50.8278 90.2072 51.6038 89.8669C52.6187 89.4219 53.5838 89.5749 54.5637 90.0313C55.5395 90.4859 56.4862 91.0139 57.4433 91.5067C58.4169 92.0076 59.3924 92.5044 60.3673 93.0025C61.0131 93.3325 61.9594 93.6304 62.4331 94.2378C62.4633 94.1034 62.4985 93.9694 62.5397 93.8359C62.4927 93.6323 62.5109 93.4123 62.625 93.2026C64.2167 90.2781 65.6893 87.2837 67.1516 84.2931C67.8917 82.7796 68.5954 81.2482 69.337 79.7356L70.0579 78.2624C70.1784 78.017 70.2992 77.7717 70.4207 77.5269C70.6026 77.1603 70.792 76.7972 70.9759 76.4315C71.0536 76.277 71.1511 76.1236 71.2267 75.9676L71.2626 75.8894C71.2643 75.8853 71.439 75.3361 71.3041 75.3884L71.2924 75.394C71.2236 75.433 71.1685 75.3464 71.213 75.2911C71.4038 75.0552 71.6696 75.2642 71.7784 75.4825C72.0784 76.0835 71.5288 77.0268 71.3174 77.6022L71.3058 77.6343C70.6497 79.4913 69.9068 81.3135 69.1457 83.1293C67.6863 86.6106 66.1186 90.0385 64.5543 93.4724L64.5358 93.5314C64.8693 93.2757 65.2255 93.0437 65.5305 92.8178C66.2999 92.2478 67.0917 91.706 67.8823 91.1659C69.3322 90.1753 70.8214 89.2501 72.3352 88.3613L72.6382 88.1841C73.3944 87.7436 74.1435 87.3864 75.041 87.5186C75.8749 87.6415 76.6501 88.0894 77.4035 88.4533L77.4813 88.4906L79.809 89.5972C79.5602 88.6049 79.2908 87.6174 79.0097 86.6336C78.4614 84.7147 77.8582 82.8118 77.204 80.926C76.593 79.1641 75.9325 77.4214 75.2339 75.6925L75.0236 75.1736C74.7387 74.4618 74.4555 73.6856 73.6414 73.4664C72.8278 73.2473 71.8945 73.5722 71.1509 73.1085C71.0833 73.0663 71.0917 72.9549 71.1737 72.9343L71.6325 72.8187C72.494 72.6044 73.504 72.3888 74.3186 72.5972C75.2052 72.8243 75.9386 73.5683 76.3687 74.3417C76.8469 75.2021 77.184 76.165 77.547 77.0825L77.6045 77.227C78.021 78.2653 78.4217 79.3098 78.805 80.3609C79.5715 82.4619 80.2692 84.5882 80.9008 86.7336C81.2051 87.7676 81.4939 88.8065 81.7714 89.848C81.8512 90.1475 81.9828 90.5107 82.0908 90.8894C82.2145 91.0101 82.3316 91.1448 82.4415 91.2983C82.6238 91.5531 82.4929 91.8519 82.2663 92.0045C82.2575 92.2651 82.1996 92.5103 82.0612 92.7204C81.5207 93.5408 80.0918 93.3295 80.1498 92.2265C80.1586 92.0577 80.2244 91.8965 80.324 91.7603L80.3212 91.7382L80.3099 91.6978C80.0618 91.5789 79.8127 91.4464 79.5501 91.3168L77.1072 90.1096C76.3997 89.7599 75.6154 89.2197 74.8287 89.0865C74.0952 88.9623 73.3213 89.5087 72.691 89.8385L72.6501 89.8597C71.1264 90.6406 69.6141 91.4475 68.1077 92.2609C67.3723 92.6581 66.6465 93.0719 65.914 93.4738C65.3014 93.8099 64.6404 94.2923 63.9519 94.4819C63.6579 94.7106 63.3086 94.68 63.0278 94.5071C63.1561 95.3016 63.1483 96.117 63.1876 96.9293C63.2406 98.0153 63.2487 99.1043 63.2662 100.192L63.2733 100.599C63.3195 103.003 63.3443 105.408 63.3534 107.813C63.3859 116.375 63.2913 124.94 63.2692 133.503C63.258 137.805 63.1728 142.11 63.061 146.411C63.0136 148.233 62.9145 150.053 62.8075 151.873L62.7486 152.865C62.624 154.959 62.5505 157.076 62.1628 159.142C62.1123 159.411 61.6562 159.418 61.6115 159.142C61.2547 156.928 61.2349 154.666 61.1663 152.427L61.1518 151.979C61.0694 149.575 61.0303 147.172 61.0386 144.766C61.0691 136.2 61.2918 127.639 61.474 119.076C61.5655 114.773 61.6271 110.469 61.7694 106.168C61.8405 104.016 61.9211 101.865 62.0166 99.7134C62.0593 98.7529 62.1003 97.7934 62.1641 96.8343L62.1929 96.4233C62.2127 96.1551 62.2287 95.8903 62.2482 95.6278C61.3815 95.9444 60.5888 95.3583 59.8092 94.9573C58.9106 94.495 58.0124 94.032 57.1135 93.5707L56.2138 93.1101L54.4133 92.1914C53.6026 91.7777 52.9781 91.366 52.1134 91.8513C48.9984 93.5989 46.1359 95.9242 43.5418 98.3642C43.0444 98.8321 41.9933 98.7064 41.8672 97.9221C41.329 94.5718 41.6564 91.173 41.9312 87.8125L42.0325 86.5649C42.1552 85.0747 42.2889 83.5846 42.4671 82.1005C42.5467 81.4366 42.6261 80.7732 42.7139 80.1105L42.7814 79.6138C42.8912 78.8284 42.9628 78.0477 43.1968 77.2944C43.123 77.2705 43.052 77.2314 42.9885 77.1712C42.285 76.5038 42.6242 75.3457 42.9452 74.5518C43.2621 73.7682 43.7454 73.0843 44.3507 72.4957C44.4827 72.3671 44.6688 72.2845 44.8558 72.2801C46.3233 71.3079 47.9332 70.8227 49.6087 71.3534C49.6558 71.1283 49.7038 70.9037 49.7543 70.6796L49.8058 70.4557C49.9361 69.8997 49.9845 68.9813 50.4641 68.6094ZM65.5045 156.411C65.9599 156.286 66.4585 156.418 66.7922 156.751C67.1257 157.085 67.2578 157.584 67.1323 158.039C67.0696 158.263 66.9562 158.458 66.7922 158.623C66.6388 158.775 66.46 158.884 66.2557 158.949L66.2081 158.963L66.1337 158.994C65.9054 159.056 65.677 159.056 65.4489 158.994C65.2307 158.933 65.0413 158.823 64.8805 158.663C64.7208 158.502 64.6104 158.313 64.5492 158.095C64.4878 157.866 64.4878 157.638 64.5492 157.41L64.5803 157.335C64.643 157.111 64.7565 156.916 64.9205 156.751C65.0856 156.587 65.2803 156.474 65.5045 156.411ZM92.5441 111.033C92.6189 110.947 92.7402 111.057 92.6937 111.148C91.9844 112.539 91.1938 113.92 90.4168 115.275C90.4791 115.65 90.5408 116.023 90.6118 116.386C90.9145 117.934 91.2853 119.454 91.527 121.017C92.3959 126.634 92.8469 132.311 93.234 137.979C93.6222 143.666 93.6718 149.357 93.7301 155.055C93.7352 155.549 93.3553 156.123 92.8462 156.216C92.6131 156.259 92.4387 156.251 92.2061 156.216C91.6763 156.138 91.3449 155.531 91.3221 155.055C91.1702 151.87 90.9658 148.689 90.729 145.509C90.3094 139.872 90.0529 134.219 89.7139 128.575L89.5945 126.603C89.4663 124.465 89.3491 122.327 89.3109 120.186C89.2855 118.768 89.3614 117.35 89.3148 115.934C89.2717 114.626 89.1391 113.204 89.4274 111.919C89.4381 111.871 89.5142 111.859 89.5362 111.905C89.8359 112.536 90.0258 113.222 90.1722 113.922C90.9447 112.945 91.7315 111.966 92.5441 111.033ZM41.9381 76.489C42.0465 76.4812 42.0422 76.6442 41.9381 76.6562C40.4219 76.8321 38.9572 77.4491 37.5257 77.9735L37.403 78.0182C35.9567 78.5429 34.5466 79.1532 33.1896 79.8805C30.5365 81.3027 28.1002 83.1364 25.9461 85.2356C17.3459 93.6156 13.4266 105.7 10.5547 117.056C8.95899 123.366 7.82428 129.782 7.08881 136.247C6.72514 139.444 6.46804 142.654 6.31815 145.869C6.24143 147.516 6.19303 149.165 6.17284 150.814C6.16242 151.659 6.15937 152.504 6.16039 153.349C6.1609 153.736 6.23 154.223 6.12647 154.599C6.03044 154.947 5.75963 155.254 5.55931 155.544C5.3219 155.888 4.89523 155.87 4.65452 155.544L4.56575 155.425C4.30903 155.085 4.05784 154.759 4.02117 154.314C3.98192 153.837 4.00961 153.345 4.00784 152.866C4.00377 151.901 4.01571 150.935 4.03502 149.97C4.07224 148.119 4.14515 146.27 4.2535 144.423C4.47351 140.673 4.83565 136.932 5.35417 133.212C6.27585 126.601 7.65737 120.052 9.46696 113.627C11.1742 107.565 13.1966 101.522 16.0778 95.907C18.7529 90.694 22.2624 85.8443 26.8932 82.201C29.0466 80.5067 31.3908 79.0947 33.9182 78.0314C35.1929 77.4951 36.5315 77.0573 37.8928 76.8077C39.239 76.5609 40.5794 76.5953 41.9381 76.489ZM65.7655 145.697C66.006 145.695 66.2741 145.748 66.4804 145.881L66.756 146.094C66.8307 146.19 66.905 146.286 66.9791 146.383C67.1515 146.607 67.1743 146.971 67.1384 147.238C67.1303 147.417 67.0772 147.583 66.9791 147.737L66.7693 148.009C66.5675 148.174 66.3994 148.291 66.1551 148.37C66.0274 148.411 65.9044 148.42 65.7818 148.414L65.741 148.411L65.7655 148.414L65.7226 148.41C65.6827 148.406 65.6427 148.402 65.6025 148.396C65.5752 148.393 65.5478 148.391 65.5205 148.387C65.4942 148.385 65.4688 148.384 65.4422 148.386C65.1318 148.416 64.8197 148.239 64.5993 148.037C64.4008 147.855 64.2225 147.468 64.2502 147.194L64.2621 147.08C64.283 146.887 64.3001 146.811 64.382 146.617C64.4615 146.428 64.5726 146.261 64.7239 146.121C65.0135 145.851 65.368 145.7 65.7655 145.697ZM64.8045 131.561C65.2166 131.112 65.9243 131.079 66.4353 131.351C66.5598 131.417 66.6741 131.523 66.7838 131.612C67.0604 131.836 67.169 132.239 67.1842 132.579C67.1993 132.915 67.0221 133.314 66.7838 133.546L66.726 133.602C66.5836 133.74 66.3796 133.861 66.1805 133.897C65.8592 133.956 65.5894 133.954 65.2903 133.828C65.0332 133.72 64.8118 133.545 64.6611 133.309L64.6366 133.269C64.6263 133.252 64.6165 133.235 64.6073 133.218L64.5941 133.192C64.3077 132.641 64.3847 132.018 64.8045 131.561ZM65.018 117.351C65.2038 117.293 65.3895 117.285 65.5753 117.326C65.7015 117.326 65.8191 117.358 65.9281 117.421C66.0465 117.455 66.1494 117.515 66.2365 117.601C66.3414 117.663 66.4251 117.747 66.4872 117.852C66.6108 117.987 66.6942 118.145 66.7375 118.327L66.7873 118.699L66.7375 119.071L66.5965 119.404C66.5578 119.455 66.5188 119.506 66.4794 119.556C66.4171 119.661 66.3333 119.745 66.228 119.807C66.1595 119.875 66.081 119.926 65.9933 119.962C65.682 120.185 65.2674 120.258 64.8987 120.156C64.6797 120.095 64.4895 119.984 64.3283 119.824C64.1682 119.662 64.0573 119.472 63.996 119.253L63.9708 119.078C63.9383 118.844 63.9331 118.714 63.9995 118.416C64.0286 118.285 64.113 118.1 64.1572 118.022C64.3463 117.69 64.655 117.462 65.018 117.351ZM81.1542 107.128C81.6878 107.124 82.2214 107.125 82.7549 107.131L83.1551 107.136C83.8251 107.147 84.399 107.078 84.9258 107.543C85.3081 107.88 85.1397 108.446 84.7768 108.7C84.2269 109.085 83.5372 108.892 82.9051 108.849C82.2385 108.805 81.5713 108.767 80.9039 108.737C79.6117 108.68 78.319 108.643 77.0255 108.637C75.7348 108.632 74.4422 108.644 73.1517 108.665C71.8385 108.686 70.4712 108.808 69.1654 108.672C68.986 108.654 68.9456 108.418 69.1227 108.357C70.3532 107.931 71.7374 107.793 73.0269 107.63C74.357 107.462 75.6871 107.343 77.0255 107.266C78.4003 107.187 79.7771 107.138 81.1542 107.128ZM65.0155 102.947L65.0595 102.948C65.2944 102.949 65.5142 103.004 65.7192 103.114L65.7629 103.138L66.0449 103.356C66.2175 103.53 66.337 103.735 66.4031 103.971L66.4529 104.341C66.4602 104.533 66.4201 104.712 66.333 104.878C66.2767 105.051 66.1807 105.2 66.0449 105.326C65.9186 105.462 65.7691 105.558 65.5965 105.614C65.4431 105.695 65.2789 105.735 65.1036 105.735L65.0595 105.734C64.8082 105.734 64.5737 105.67 64.3565 105.544L64.0743 105.326C63.9017 105.152 63.7822 104.948 63.7161 104.712L63.6662 104.341C63.6591 104.149 63.699 103.97 63.7864 103.804C63.8425 103.632 63.9386 103.482 64.0743 103.356C64.2006 103.22 64.35 103.124 64.5229 103.068C64.6761 102.987 64.8403 102.947 65.0155 102.947ZM69.1462 70.2166C69.4464 69.7818 69.9904 70.1685 69.9125 70.5181C69.9331 71.4998 69.9833 72.4527 70.2067 73.4144C70.309 73.8546 70.443 74.2954 70.6497 74.6987L70.7364 74.8685C71.004 75.397 71.2116 75.8955 70.8514 76.4753C70.6815 76.7486 70.3746 76.9539 70.042 76.9395C68.5666 76.8759 68.3638 74.8223 68.2742 73.6759C68.1817 72.4952 68.4693 71.1977 69.1462 70.2166Z" fill="black"/>
<path fill-rule="evenodd" clip-rule="evenodd" d="M82.5893 45.6856C82.5388 42.84 82.483 39.9375 82.0609 37.1196C81.6482 34.3647 80.5129 31.8745 78.5618 29.874C74.4178 25.6247 68.4108 24.5868 62.8193 23.6356L53.2595 22.0093C50.343 21.5133 47.2315 20.7204 44.2848 21.4239C42.8328 21.7705 41.5997 22.5758 40.4727 23.5287C39.3864 24.447 38.2185 25.4333 37.4824 26.6688C36.7451 27.9062 36.4914 29.3526 36.2517 30.752C35.9813 32.3298 35.7713 33.9199 35.6221 35.5138C35.3231 38.7072 35.2823 41.9246 35.4992 45.1246C35.6042 46.6767 35.7714 48.2243 35.9849 49.7651C36.0907 50.5292 36.2104 51.2913 36.3455 52.0508C36.3853 52.2748 36.4156 52.5227 36.4564 52.7732C36.1549 53.6327 35.9835 54.5227 35.9973 55.409C36.038 58.0196 38.2368 59.6631 40.4536 60.5456C41.7389 61.0572 43.0826 61.4049 44.3455 61.9765C45.674 62.5777 46.5783 63.5524 47.4866 64.6642C49.219 66.7847 51.174 68.6906 53.4063 70.2807C58.1391 73.6521 64.1337 75.2466 69.8762 74.0363C71.2541 73.7459 72.6441 73.295 73.8826 72.6155C75.1902 71.8982 76.1735 70.8588 76.9992 69.6298C78.5323 67.3484 79.6318 64.7793 80.4636 62.165C81.3119 59.4983 81.9142 56.8267 82.2426 54.046C82.5699 51.2743 82.6388 48.4745 82.5893 45.6856Z" fill="white"/>
<path fill-rule="evenodd" clip-rule="evenodd" d="M52.0831 12.0971C56.0392 11.5518 61.4995 13.3241 63.4696 16.8978C72.8757 14.6757 84.7392 14.6029 92.4918 22.0004C100.581 30.7755 90.4204 42.3455 83.683 44.9541C84.1735 47.343 83.4087 62.6475 77.9968 69.4742C73.7018 75.2584 63.6998 77.9278 59.0716 71.0191L59.0355 70.9621C58.5396 70.1642 58.9667 70.1898 59.4757 70.7833C64.0077 74.7772 70.1697 74.8454 74.9181 70.6305C83.8174 62.9265 82.8999 44.0367 78.6652 33.1087C66.6069 31.7815 53.6962 35.444 45.3677 44.5401L45.9309 47.9378C46.0268 48.5166 46.1358 49.0949 46.219 49.6758C46.2722 50.048 46.2782 50.4182 46.0209 50.7195C45.1712 51.7141 43.7393 50.2195 42.5611 49.625C42.2132 49.576 41.8648 49.5571 41.5231 49.5812C35.8624 50.3118 36.9777 61.316 43.1991 59.3871C43.7219 59.0608 44.171 59.1604 44.3738 59.6339C45.8567 60.9951 46.8345 63.4228 49.2983 65.761C50.1676 66.6381 50.9587 67.372 51.9365 68.0756C52.5108 68.6576 54.2438 69.251 53.6944 70.247C52.6556 72.5134 46.5293 65.3943 45.4462 63.4256C42.0525 64.7685 38.2917 64.3123 34.7748 63.9841C16.2215 63.0174 18.6983 43.4189 33.906 31.0453C36.7687 28.9334 39.9271 27.2106 43.2102 25.8848C43.6584 25.7038 43.4625 24.9663 43.008 25.1498C40.8357 26.0272 38.7179 27.0715 36.6992 28.2801L36.6962 27.5575C36.6932 26.3405 36.7122 25.0734 36.9232 23.9614C37.0287 23.1909 37.206 22.3679 37.479 21.7488C37.8166 19.8506 43.1042 13.3353 52.0831 12.0971ZM41.2754 52.1075C41.5619 51.8348 42.0967 52.16 42.3517 52.1519C43.0039 52.2413 43.6235 52.5173 44.1067 52.858C44.4257 53.0371 44.6493 53.2053 44.8362 53.36L44.8412 53.3586C44.8398 53.3586 44.8381 53.36 44.8365 53.3604L44.8541 53.3723C45.1262 53.566 46.1221 54.657 45.4929 54.3636C45.446 54.3025 45.3979 54.2438 45.3495 54.1863C45.3443 54.1942 45.3371 54.2019 45.3285 54.2094L45.3638 54.262C45.8986 55.0681 44.9753 54.2188 44.8332 53.9932C44.8265 53.9987 44.8189 54.0023 44.8114 54.0063L44.9964 54.2319C45.0223 54.2639 45.0426 54.2895 45.0595 54.3111L45.0985 54.3489C45.7168 54.9579 45.7361 55.506 45.0178 54.6056C45.0461 54.648 45.0688 54.693 45.0719 54.7329L45.1145 54.7873C45.6785 55.5156 45.2198 55.2569 44.9395 54.9459L44.916 54.9191L44.9208 54.9264C45.1816 55.3289 44.6642 55.0464 44.5728 54.8311L44.569 54.8214C44.4693 54.74 44.408 54.6485 44.387 54.6255L44.3831 54.6216C43.8982 54.1237 43.1952 53.7023 42.598 53.5109C42.5114 53.4944 42.4239 53.4812 42.3354 53.4718C41.9763 53.3915 41.6133 53.3365 41.2464 53.3068C41.2015 53.3014 41.156 53.2684 41.1221 53.2257C40.5674 53.207 40.7386 52.9791 40.9687 52.9368L40.9728 52.9361L40.9271 52.9323C40.5711 52.8975 40.328 52.7695 40.688 52.6909L40.7336 52.6818C40.728 52.673 40.723 52.6643 40.7182 52.6555C40.41 52.6216 40.6111 52.3213 40.7822 52.394C40.7102 52.1581 41.0393 52.2758 41.0804 52.2408C41.1117 52.206 41.1506 52.1752 41.173 52.1736C41.2722 52.1035 41.2241 52.1098 41.2754 52.1075ZM43.1616 48.2885L43.0894 48.3308C43.0309 48.3649 42.9709 48.3877 42.9105 48.401C42.9957 48.4373 43.0799 48.4766 43.1631 48.5185C43.1618 48.4673 43.1608 48.4161 43.1608 48.365L43.1616 48.2885Z" fill="#1D1D1D"/>
<path fill-rule="evenodd" clip-rule="evenodd" d="M71.455 63.8461C70.5193 64.1172 69.5149 64.1414 68.5611 63.8615C67.6959 63.6076 66.8076 63.0489 66.1709 62.3095C65.6053 61.6528 65.2389 60.8546 65.2533 60.0026C65.255 59.9053 65.2898 59.8241 65.3433 59.7611C65.4009 59.6932 65.4814 59.6466 65.5676 59.6264C65.6562 59.6056 65.75 59.613 65.8298 59.6492C65.902 59.682 65.9639 59.7378 66.0026 59.8192C66.1005 59.9478 66.1979 60.0744 66.2958 60.1976C67.0826 61.1691 67.8445 61.8951 69.0276 62.1555C69.6695 62.2968 70.3106 62.2342 70.8989 62.0186C71.5285 61.7878 72.0978 61.382 72.5438 60.8627C72.7454 60.628 72.9834 60.5322 73.2161 60.5306C73.4798 60.5287 73.7404 60.6513 73.9368 60.8471C74.1298 61.0396 74.2591 61.3013 74.2708 61.5749C74.281 61.8151 74.2027 62.066 73.9942 62.2898C73.3077 63.0271 72.4178 63.5673 71.455 63.8461ZM71.4261 51.6783C72.3853 52.2613 73.8469 53.6209 72.815 55.0663C71.6004 56.3408 69.8516 54.8795 68.9898 54.2186C68.1907 53.7064 67.2929 55.0237 68.0343 55.6218C74.2615 60.2322 76.7886 51.8307 71.9113 50.9927C71.3743 50.9004 71.1748 51.4979 71.4261 51.6783ZM62.4532 49.1127C62.1449 48.9156 61.7823 48.8479 61.3803 49.0308C61.0663 49.1736 60.5154 49.6497 60.132 50.2757C59.8697 50.7039 59.6837 51.2063 59.7225 51.7296C59.7314 51.8511 59.6865 51.9407 59.6157 52.0069C59.5598 52.0593 59.479 52.0977 59.3841 52.1097C59.3035 52.1199 59.2133 52.1107 59.14 52.0878C59.0005 52.0443 58.9266 51.9538 58.8988 51.8799C58.6304 51.1671 58.746 50.3715 59.0469 49.6538C59.4529 48.6853 60.1902 47.874 60.6733 47.6124C61.4999 47.1646 62.4751 47.144 63.3029 47.6002C64.0076 47.9884 64.4482 48.6152 64.8864 49.2542C64.9796 49.39 65.072 49.5248 65.1676 49.6573C65.3591 49.9227 65.3781 50.1859 65.304 50.4116C65.2218 50.6617 65.0123 50.8727 64.7504 50.9832C64.5082 51.0852 64.2272 51.0996 63.9786 50.9947C63.7685 50.9061 63.5757 50.7334 63.4537 50.4404C63.2483 49.9468 62.906 49.4023 62.4532 49.1127ZM78.111 50.2108C77.8998 50.3208 77.7347 50.354 77.5004 50.2838C77.3709 50.2449 77.2429 50.1703 77.1427 50.0701C77.0434 49.9708 76.9717 49.8473 76.9438 49.7102C76.8753 49.372 76.6903 49.0555 76.4266 48.8491C76.2012 48.6727 75.9168 48.5793 75.6012 48.632C75.2608 48.6888 74.9364 48.9072 74.713 49.1646C74.6383 49.2508 74.5798 49.3486 74.5209 49.4458C74.4108 49.6275 74.3038 49.7965 74.152 49.9299C74.0945 49.9807 74.0078 50.0159 73.9238 50.0159C73.8896 50.0159 73.855 50.0103 73.822 50C73.4831 49.6599 73.4179 49.4019 73.4288 49.1459C73.4403 48.8776 73.5461 48.6058 73.7171 48.3523C74.1182 47.7576 74.8797 47.27 75.3936 47.1595C76.0974 47.0083 76.7963 47.1898 77.3567 47.5829C77.9333 47.9874 78.3605 48.6153 78.4938 49.323C78.5258 49.4934 78.5122 49.6774 78.4473 49.8369C78.3838 49.9927 78.2733 50.1262 78.111 50.2108ZM64.0054 42.772C63.583 43.1835 63.0831 43.2472 62.5774 43.3039C62.2964 43.3357 62.0721 43.3614 61.8514 43.4112C61.2447 43.5481 60.645 43.7544 60.0978 44.0515C59.5259 44.362 58.9026 44.7365 58.4542 45.2163C58.3475 45.3305 58.247 45.4503 58.1464 45.5703C58.0546 45.6798 57.9662 45.7852 57.873 45.8868C57.766 46.0036 57.6644 46.1259 57.5633 46.2479C57.5008 46.3509 57.4884 46.3762 57.4758 46.4026C57.4569 46.4422 57.4349 46.4865 57.4097 46.5341C57.3752 46.5992 57.3349 46.6705 57.2926 46.7351C57.2223 46.8533 57.1845 46.8858 57.1519 46.9004C57.0978 46.9245 57.0465 46.9364 56.9967 46.9299C56.95 46.9239 56.906 46.9015 56.8626 46.8648C56.6457 46.6816 56.5818 46.3809 56.5883 46.0618C56.5983 45.5775 56.7769 45.0412 56.9416 44.7116C57.3245 43.9457 57.8555 43.1495 58.494 42.5778C59.2227 41.9253 60.0198 41.4313 60.9354 41.0909C61.5044 40.8793 62.1631 40.6851 62.783 40.7096C63.2292 40.7273 63.6552 40.8599 64.007 41.1911C64.223 41.3945 64.3267 41.6837 64.3267 41.9727C64.3267 42.2674 64.219 42.5639 64.0054 42.772ZM78.9699 46.5402C78.9431 46.5842 78.9059 46.6145 78.8645 46.6328C78.8212 46.6519 78.7728 46.6574 78.7263 46.6495C78.6801 46.6417 78.6361 46.6208 78.6012 46.5887C78.5678 46.558 78.5423 46.5173 78.531 46.4674C78.2506 45.2358 77.7061 44.3195 76.5439 43.7286C75.9723 43.438 75.3149 43.2533 74.6926 43.106C74.5118 43.0632 74.3207 43.0355 74.1283 43.0074C73.5252 42.9193 72.9177 42.8185 72.5246 42.331C72.2877 42.0374 72.1882 41.6618 72.2444 41.3184C72.2974 40.995 72.4863 40.6985 72.8299 40.5208C73.685 40.0786 74.7478 40.5125 75.6114 40.8821C75.6754 40.9095 75.7383 40.9364 75.7999 40.9624C76.6444 41.3189 77.4147 41.7894 78.0478 42.4624C78.5502 42.9963 79.0157 43.7855 79.2032 44.5974C79.3591 45.2729 79.3225 45.9624 78.9699 46.5402Z" fill="#1D1D1D"/>
<path fill-rule="evenodd" clip-rule="evenodd" d="M71.5658 56.6268C70.1532 55.9906 67.6165 56.5458 66.6956 56.7665C64.5546 57.28 62.4007 58.3895 61.7351 60.1279C60.9851 62.087 62.4817 62.7037 62.7018 62.6029C64.1839 62.7073 65.9489 61.7756 67.502 61.5352C68.7629 61.3383 70.093 61.1664 71.2743 60.4965C72.1368 60.9709 74.0848 61.2274 75.657 61.6422C76.996 61.9954 77.5761 62.7612 78.8174 62.5984C80.3051 62.4032 79.6961 59.2743 78.0381 58.0067C76.2234 56.6195 73.1542 56.0569 71.5658 56.6268ZM74.3628 70.0057C73.127 70.307 73.044 67.5982 72.9055 66.6412C72.7973 65.8935 72.1873 63.9654 70.6407 64.0486C69.094 64.1318 68.5127 65.7472 68.5911 66.752C68.642 67.4035 69.2424 70.7038 67.326 71.1213C66.1041 71.117 64.6906 71.0346 63.4059 70.7977C61.8938 70.4552 59.9275 69.2562 59.4082 71.6175C59.2212 72.4673 65.8821 74.9922 68.8378 75.2205C71.8354 75.828 75.3425 74.8939 77.4767 72.6008C77.9622 72.0791 79.3297 69.9138 79.4271 69.3833C79.6319 68.2686 79.1579 67.5513 77.7787 67.9442C76.8044 68.4645 75.1576 69.8119 74.3628 70.0057Z" fill="#1D1D1D"/>
</g>
</svg>
