<svg width="120" height="120" viewBox="0 0 120 120" fill="none" xmlns="http://www.w3.org/2000/svg">
<mask id="mask0" mask-type="alpha" maskUnits="userSpaceOnUse" x="0" y="0" width="120" height="120">
<circle cx="60" cy="60" r="60" fill="white"/>
</mask>
<g mask="url(#mask0)">
<circle cx="60" cy="60" r="60" fill="#5E4545"/>
<path fill-rule="evenodd" clip-rule="evenodd" d="M103.3 158.046C105.743 157.928 104.76 153.656 104.585 152.088C102.651 146.358 103.106 140.106 102.346 134.1C101.872 128.494 101.263 122.904 100.751 117.302C99.7455 105.93 92.524 82.7793 84.2831 79.0562C83.245 74.5012 78.9573 70.2492 73.5324 70.2492C69.8324 65.8695 65.3789 62.7871 59.6668 63.4095C57.3063 63.5169 55.0171 66.0205 52.7553 66.5039C51.4888 66.6786 40.2498 66.2291 37.9985 67.5662C36.4303 68.3714 35.0146 69.8593 35.4757 71.7537C36.2114 74.0487 33.9251 71.5654 29.1557 74.015C19.4302 79.856 25.2417 87.67 25.4993 87.9121C19.4302 96.3563 14.1255 103.207 11.6711 113.528C10.0804 121.191 10.2595 129.101 8.92669 136.803C8.4561 139.474 7.73418 142.053 6.95298 144.646C6.10633 148.04 5.69466 156.5 5.22799 156.575C4.37792 156.786 5.71928 158.532 6.62001 158.533C31.5929 162.676 56.9593 158.705 82.0664 158.056C89.142 157.81 96.2252 157.753 103.3 158.046Z" fill="white"/>
<path fill-rule="evenodd" clip-rule="evenodd" d="M52.7867 73.9396C52.7867 76.5973 62.0152 86.473 65.2 85.8215C67.3232 85.3871 70.5312 82.5545 74.824 77.3236V73.9396L73.8969 70.2557C79.1486 70.4408 83.2683 74.6038 84.2831 79.0562C92.4416 82.7422 99.6009 105.469 100.719 116.958L100.751 117.302C101.263 122.905 101.872 128.494 102.346 134.1C103.106 140.106 102.651 146.358 104.585 152.088L104.596 152.185C104.798 153.826 105.694 157.931 103.3 158.046C96.2252 157.753 89.142 157.81 82.0664 158.056C56.9593 158.705 31.5929 162.676 6.62001 158.533C5.71928 158.532 4.37792 156.787 5.22799 156.575C5.69466 156.5 6.10633 148.04 6.95298 144.646L7.1137 144.11C7.83256 141.697 8.48856 139.29 8.92669 136.803C10.2595 129.101 10.0804 121.191 11.6711 113.528C14.1255 103.207 19.4302 96.3563 25.4993 87.9122C25.2417 87.6701 19.4302 79.8561 29.1557 74.0151C33.9251 71.5655 36.2114 74.0488 35.4757 71.7537C35.0146 69.8594 36.4303 68.3714 37.9985 67.5662C40.2498 66.2292 51.4888 66.6786 52.7553 66.504C53.3436 66.3782 53.9338 66.1158 54.5266 65.7944L54.4237 66.1368C53.3323 69.7946 52.7867 72.3956 52.7867 73.9396Z" fill="white"/>
<path fill-rule="evenodd" clip-rule="evenodd" d="M65.4504 88.6572C65.462 88.5429 65.6162 88.5431 65.6281 88.6572L65.8044 90.3593C66.0189 92.438 66.2254 94.5127 66.3752 96.6011C66.5618 99.2054 66.6866 101.809 66.7468 104.419C66.9566 113.509 66.9983 122.605 67.016 131.697C68.2456 131.612 69.4754 131.53 70.7058 131.451C71.5406 131.397 72.3754 131.345 73.2104 131.294L75.3393 131.165L76.2158 131.111C76.808 131.075 77.4809 130.926 77.895 131.45C78.0608 131.66 78.144 131.933 77.9894 132.183C77.6329 132.758 77.0854 132.738 76.4661 132.762C75.8818 132.786 75.2975 132.809 74.7131 132.832C73.461 132.88 72.209 132.926 70.9564 132.961C69.642 132.998 68.3281 133.028 67.0142 133.051C67.0009 136.889 66.8421 140.723 66.6703 144.557L66.5926 146.283C66.3825 150.949 66.1564 155.619 65.8353 160.279C65.8089 160.661 65.2692 160.66 65.243 160.279C64.8814 155.031 64.6428 149.772 64.4062 144.517C64.2346 140.707 64.1348 136.896 64.0873 133.085C63.9136 133.086 63.7399 133.088 63.5663 133.089C58.6346 133.11 53.7042 133.132 48.7725 133.085C48.7808 133.095 48.7888 133.105 48.7943 133.118C49.1511 133.96 49.1851 135.035 49.1764 135.939C49.1664 136.976 49.0268 138.001 48.788 139.009C47.9323 142.622 45.7252 145.857 43.2115 148.533L43.1294 148.62C42.5365 149.246 41.8563 149.875 41.4922 150.673C41.1204 151.488 40.9913 152.441 40.8078 153.317L40.7864 153.418L40.0688 156.732C39.8409 157.784 39.7762 159.319 38.9429 160.079C38.1655 160.788 37.1356 160.417 36.7698 159.505C36.4841 158.793 36.7687 158.011 36.9379 157.299L38.2636 151.726C38.4814 150.818 38.7195 149.903 39.1896 149.087C39.6712 148.25 40.3772 147.644 41.0976 147.024C42.4617 145.85 43.714 144.505 44.7731 143.049C45.8318 141.594 46.7365 139.99 47.371 138.303C47.6887 137.459 47.949 136.582 48.1286 135.697C48.2993 134.858 48.2978 133.989 48.4804 133.159C48.4929 133.101 48.5413 133.062 48.5968 133.045C48.5836 133.008 48.6037 132.958 48.6555 132.954L52.6888 132.695C56.274 132.464 59.8591 132.227 63.4411 131.956L64.074 131.91C64.0249 126.824 64.0666 121.738 64.1584 116.65C64.2426 111.985 64.2444 107.318 64.3831 102.654C64.4521 100.339 64.6009 98.0289 64.7664 95.7186C64.9357 93.3558 65.2068 91.0129 65.4504 88.6572ZM27.5796 115.708C27.5366 115.449 27.8625 115.288 28.0128 115.525C29.7302 118.232 30.5583 121.173 30.9073 124.34C31.2157 127.136 31.1248 129.972 30.9713 132.776C30.8075 135.765 30.6164 138.754 30.4232 141.743L30.1264 146.325L29.3815 157.813C29.3281 158.635 29.1416 159.382 28.4341 159.764C28.3445 159.839 28.2511 159.906 28.1423 159.964C27.7601 160.168 27.2531 160.065 27.0321 159.673L27.1207 159.731C27.1979 159.78 27.1112 159.712 26.8606 159.528L26.6479 159.252C26.4934 159.02 26.3947 158.792 26.355 158.516C26.2933 158.087 26.3732 157.616 26.4012 157.185L26.8895 149.652C27.2693 143.796 27.7127 137.941 28.0469 132.082C28.2026 129.351 28.3116 126.618 28.2378 123.882C28.1643 121.162 28.0257 118.395 27.5796 115.708ZM42.4369 65.2808L42.5322 65.2648C45.9435 64.6982 49.6528 64.8042 52.7704 66.4486C52.7961 66.4621 52.7844 66.505 52.7554 66.5037L51.752 66.4636C48.5753 66.3392 45.4084 66.2656 42.2849 67.012L41.9652 67.089C40.8403 67.3634 39.6656 67.6992 38.7621 68.4422C37.8985 69.1523 37.4685 70.2478 37.055 71.2563L36.9997 71.3894C36.5802 72.3855 36.0492 73.3301 35.1297 73.953C33.9387 74.7596 32.5064 74.6607 31.1407 74.7703C28.7362 74.9635 26.7704 76.7061 25.7923 78.8385C25.2 80.1297 24.9474 81.5774 24.8974 82.9894C24.8717 83.7083 24.8681 84.4552 24.9638 85.1693C24.9944 85.3977 25.2767 86.2295 25.4207 86.2096C25.7405 86.1652 26.0329 86.332 26.1326 86.5876C26.9226 85.8244 27.7354 85.0831 28.5744 84.3685C30.6656 82.5877 32.9181 80.9736 35.2902 79.5866C37.1006 78.5279 39.0103 77.4791 40.9878 76.6861C40.8311 76.6828 40.6765 76.7139 40.527 76.7916C40.4616 76.8259 40.3965 76.7438 40.4482 76.6894C41.071 76.0341 41.8171 75.9408 42.5692 76.1156C42.7297 76.0645 42.8903 76.0151 43.0516 75.9683C43.1318 75.9449 43.1717 76.0554 43.1063 76.0982L42.9215 76.2162C43.742 76.491 44.5476 77.0312 45.1854 77.4576C47.0174 78.682 48.63 80.1788 50.2647 81.6475L50.5619 81.9138C52.0007 83.1985 53.4763 84.4469 55.111 85.4776C55.9668 86.0171 56.8656 86.5161 57.8084 86.8873C58.617 87.2058 59.9337 87.4064 60.3124 88.261C60.649 88.6699 60.5084 89.1918 60.1141 89.467C59.4492 90.1988 58.119 89.7261 57.3267 89.4213C56.3715 89.0538 55.4462 88.6122 54.5636 88.0942C52.8502 87.0883 51.2704 85.8377 49.7987 84.5073C48.2618 83.1178 46.812 81.6417 45.3171 80.2086C44.6693 79.5876 44.0366 78.9521 43.3879 78.332L43.0621 78.0235C42.731 77.713 42.2593 77.229 41.7549 76.9361C40.8048 77.5028 39.84 78.0462 38.8984 78.6276C37.5841 79.4391 36.3084 80.3092 35.0525 81.2079C32.6346 82.938 30.3434 84.8756 28.2162 86.9526C24.3151 90.7615 20.9914 95.111 18.0879 99.7165L17.8674 100.068C16.2175 102.704 14.6572 105.425 13.5509 108.337C12.3336 111.543 11.7416 114.913 11.42 118.316C11.1008 121.694 10.9931 125.089 10.6364 128.464C10.2705 131.925 9.54975 135.31 8.72989 138.688L8.53435 139.489C7.79251 142.515 7.02682 145.541 6.64549 148.638C6.44191 150.292 6.31946 151.969 6.34714 153.637C6.37494 155.315 6.63854 156.955 6.85121 158.615C6.93271 159.251 6.30695 159.781 5.74703 159.866C5.10307 159.962 4.54984 159.551 4.34967 158.953C3.72568 157.088 3.61233 155.027 3.63192 153.07C3.65163 151.083 3.90524 149.109 4.2621 147.156C4.96394 143.314 6.04702 139.553 6.95306 135.757C7.75156 132.412 8.28748 129.061 8.57635 125.634C8.87622 122.079 9.05578 118.512 9.60282 114.982C10.1428 111.497 11.1588 108.169 12.6909 104.991C14.086 102.098 15.8251 99.3752 17.6483 96.7358C19.8623 93.5308 22.294 90.481 25.0121 87.7022C24.768 87.6916 24.5173 87.6127 24.287 87.4692C23.5827 87.0298 23.2546 86.1704 23.1538 85.3857C22.9177 83.5499 22.9747 81.6335 23.4468 79.8387C24.2084 76.9434 26.185 74.3709 29.0497 73.3272C29.7871 73.0586 30.5709 72.9605 31.3524 72.9412C32.0939 72.9227 32.9038 73.0194 33.6193 72.7843C34.7581 72.41 35.2463 71.0687 35.6739 70.052L35.6936 70.0053C36.2419 68.7097 36.9 67.5992 38.0875 66.7902C39.3546 65.9269 40.9421 65.5343 42.4369 65.2808ZM74.8494 70.4047C75.8745 70.0491 77.1561 70.3718 78.1586 70.6824C79.2754 71.0287 80.3074 71.6663 81.1922 72.4236C82.1257 73.2223 82.8971 74.2084 83.4422 75.3101L83.4943 75.4162C83.9921 76.4381 84.559 77.841 84.308 78.9637C84.3008 78.9955 84.2926 79.0262 84.2832 79.0559C86.3171 80.0571 88.1954 81.3112 89.8311 82.9006C91.7357 84.7512 93.3483 86.8571 94.7131 89.1322C100.133 98.1683 101.087 109.021 101.728 119.326L101.887 121.938C102.235 127.581 102.642 133.209 103.698 138.773L103.775 139.175C104.905 145.001 106.522 150.871 106.358 156.848C106.309 158.638 103.663 158.626 103.586 156.848C103.297 150.154 101.735 143.69 100.677 137.101C98.8158 125.508 99.7484 113.557 97.1111 102.08C96.0762 97.5758 94.473 93.207 92.1836 89.1867C91.0528 87.2006 89.7589 85.2815 88.2433 83.5681C86.9393 82.0938 85.5841 80.6749 84.0602 79.4355C83.5732 79.9233 82.6003 79.6747 82.3461 78.9637C82.1714 78.475 82.2224 77.9037 82.1103 77.3918C82.0063 76.9168 81.8628 76.4459 81.6718 75.9985C81.2909 75.107 80.7319 74.2509 80.0865 73.5293C79.3894 72.7494 78.5881 72.1014 77.6915 71.5664C76.7887 71.0277 75.8015 70.8668 74.8494 70.4732C74.8173 70.4599 74.8143 70.4169 74.8494 70.4047ZM78.832 132.361C78.8335 132.314 78.889 132.292 78.9231 132.323C79.2825 132.654 79.4997 133.129 79.7642 133.535C80.0692 134.005 80.3896 134.464 80.7255 134.912C81.3985 135.808 82.1477 136.653 82.9029 137.481C83.6052 138.252 84.3538 138.989 85.1303 139.684C85.9717 140.438 86.9145 141.11 87.6789 141.944C89.2738 143.685 89.5316 146.074 89.868 148.318L89.9049 148.56C90.1101 149.892 90.294 151.227 90.4598 152.564C90.5404 153.214 90.6208 153.865 90.6865 154.517L90.7066 154.723C90.7651 155.362 90.7809 156.009 90.4144 156.567C90.0221 157.163 89.13 157.372 88.5997 156.8C87.6885 155.818 87.8593 154.072 87.7408 152.808C87.6429 151.762 87.5318 150.718 87.4074 149.675L87.3441 149.154C87.1975 147.968 87.0785 146.758 86.8072 145.593C86.568 144.567 86.1122 143.792 85.3643 143.049C84.611 142.3 83.8281 141.6 83.1327 140.794C82.3951 139.938 81.7298 139.021 81.1303 138.064C80.6176 137.245 80.2066 136.354 79.8301 135.464L79.7676 135.315C79.4037 134.447 78.8036 133.317 78.832 132.361ZM91.9882 95.0776C91.9962 94.9566 92.1751 94.9547 92.1778 95.0776C92.2004 96.1189 92.2221 97.1601 92.2437 98.2015C92.4176 106.592 92.3105 115.003 93.1523 123.365C93.5493 127.308 94.2805 131.193 95.1265 135.061C95.5594 137.041 96.0136 139.016 96.4451 140.996C96.8657 142.925 97.3167 144.864 97.6503 146.811C97.9781 148.725 98.2717 150.654 98.4035 152.593L98.4197 152.845C98.4765 153.784 98.7473 155.166 98.2302 155.998C97.6699 156.9 96.5972 156.916 95.9968 156.055C95.4331 155.247 95.5732 153.81 95.4736 152.845C95.3724 151.863 95.2654 150.88 95.1438 149.9C94.9066 147.989 94.5941 146.081 94.2691 144.183C93.5922 140.229 92.6103 136.325 91.8856 132.378C91.1428 128.333 90.6149 124.259 90.5926 120.141C90.5705 115.988 91.0101 111.843 91.232 107.698C91.4575 103.489 91.7138 99.2836 91.9882 95.0776ZM52.3498 68.9789C52.5751 68.2203 53.3702 67.746 54.1458 67.9591C54.8566 68.1545 55.4435 69.0172 55.1656 69.7553C54.8623 70.5607 54.3323 71.2475 53.8855 71.9795C53.4728 72.656 52.8708 73.1886 52.4504 73.853L52.9137 74.3525C53.1455 74.6017 53.3779 74.8493 53.6129 75.0927L54.421 75.9297C55.0503 76.5802 55.6836 77.2272 56.3347 77.8552C58.2494 79.702 60.1944 81.4882 62.3387 83.0698C62.8269 83.4297 63.3188 83.7875 63.8246 84.1227L64.0131 84.2476C64.3601 84.4748 64.7472 84.6981 65.1663 84.6596C66.1848 84.5661 67.105 83.4845 67.8048 82.8113L67.8415 82.7762C69.5758 81.126 71.1818 79.3218 72.5859 77.3818C72.8976 76.9508 73.1995 76.5124 73.4934 76.0689C72.8146 75.2759 72.9767 73.7281 72.9393 72.7664C72.9129 72.0902 72.9109 71.4139 72.9072 70.7372L72.9054 70.6008C72.8971 70.1628 72.8773 69.7427 73.1616 69.3823C73.1781 69.3615 73.2124 69.3621 73.2335 69.3731C73.6228 69.5771 73.7428 69.9187 73.9089 70.3018L73.9262 70.3416C74.1284 70.8014 74.322 71.2656 74.5179 71.7281C74.723 72.2123 74.911 72.7036 75.1016 73.1937C75.1903 73.4216 75.2749 73.6505 75.3577 73.8806C75.4081 74.0276 75.4603 74.1738 75.5139 74.3197L75.5265 74.331C75.5973 74.391 75.6573 74.4544 75.709 74.5199C75.9262 74.6285 76.0988 74.8266 76.1798 75.1175C76.3561 75.7507 75.9913 76.267 75.6659 76.7696C74.3441 78.8116 72.8373 80.7575 71.1625 82.5227C70.3305 83.3997 69.4554 84.2373 68.5443 85.0317L68.385 85.1697C67.5666 85.873 66.678 86.5393 65.5849 86.7038C64.3058 86.8963 63.2648 86.2601 62.2856 85.5274L62.1879 85.4538C61.2596 84.7511 60.35 84.0237 59.4687 83.2629C57.6719 81.7116 55.9626 80.046 54.4456 78.2186C52.9699 76.4411 51.5112 74.4537 50.6016 72.3149C50.5462 72.1846 50.692 72.0483 50.8062 72.1571C51.2505 72.58 51.678 73.026 52.1005 73.4776C52.1122 72.8128 51.9895 72.1423 52.0578 71.4733C52.141 70.6602 52.117 69.7618 52.3498 68.9789Z" fill="black"/>
<path fill-rule="evenodd" clip-rule="evenodd" d="M62.3313 19.1343C69.4913 19.1343 78.7335 23.6351 79.5216 28.2449C80.4504 33.6774 85.4238 54.5223 84.3008 61.207C83.1777 67.8916 77.1257 72.7038 67.4415 72.7038C57.7573 72.7038 50.5291 67.4114 48.8694 65.5943C47.763 64.3828 46.1845 61.6145 44.1341 57.2893C40.6773 56.8286 38.9406 55.1864 38.924 52.3627C38.9078 49.5389 40.0317 47.6134 42.2955 46.586C41.4884 35.4423 42.1012 28.4198 44.1341 25.5185C47.1834 21.1666 55.1713 19.1343 62.3313 19.1343Z" fill="white"/>
<path fill-rule="evenodd" clip-rule="evenodd" d="M79.0833 27.5012C79.0781 27.404 79.2193 27.3926 79.2458 27.4785C80.7905 32.5926 81.7427 36.578 82.745 41.8211L83.0411 43.3634C83.8321 47.477 84.6314 51.5966 85.3062 55.7301L85.3459 55.9769C85.6839 58.1166 85.8788 60.2771 85.455 62.4212C85.0591 64.4254 83.9772 66.2627 82.5724 67.726C79.8575 70.5542 76.0845 72.3207 72.289 73.1105C70.3698 73.5098 68.3901 73.6639 66.4343 73.5249C65.4594 73.4566 64.486 73.3188 63.5314 73.1155L63.4261 73.0929C62.4639 72.8848 61.6099 72.6365 61.0989 71.7292C60.9704 71.5006 61.0221 71.1088 61.2919 70.9913C61.8014 70.7713 62.1759 70.6792 62.7319 70.7424C63.2627 70.8029 63.7811 70.9635 64.3057 71.0633C65.3082 71.2542 66.3271 71.3501 67.3472 71.3729C69.3509 71.4172 71.3597 71.1657 73.2751 70.5667C76.5662 69.5368 79.9105 67.5668 81.8335 64.6199C84.0955 61.1534 83.1948 56.9462 82.5954 53.1178L82.5773 53.0019C81.9705 49.0888 81.3705 45.1757 80.7881 41.2601L80.5396 39.5819C79.8865 35.1477 79.2699 31.9822 79.0833 27.5012ZM45.6682 16.6477C47.3108 15.5628 49.352 15.2962 51.2813 15.3111L51.5229 15.3142C53.9934 15.3519 66.4289 15.6485 70.5924 15.7397L71.5829 15.7606C72.8938 15.7854 75.5378 15.8113 76.9 15.8363L76.9786 15.8377C77.647 15.8504 78.3153 15.8554 78.9836 15.8769L79.0816 15.8804C79.5822 15.9018 79.9988 15.9769 80.3909 16.3305C80.5903 16.5098 80.6681 16.7831 80.6498 17.0435L80.6469 17.0774L81.6393 17.1646C82.3131 17.2243 82.6694 17.8299 82.4017 18.4428L82.3883 18.4724C81.9129 19.4884 81.5497 22.4454 81.295 23.5384C81.1613 24.1134 81.054 24.6972 80.991 25.2848C80.9407 25.7474 80.9356 26.2111 80.6784 26.618C80.1297 27.4861 78.5864 27.4785 78.5587 26.249C78.5574 26.2098 78.5587 26.1719 78.5624 26.1353C74.6786 25.9647 69.3761 25.9811 65.4973 26.2136C61.8745 26.431 58.268 26.9238 54.7184 27.6782C53.8193 27.869 52.9227 28.0775 52.0324 28.3037C51.3023 28.4882 50.4058 28.5981 49.7526 28.9937C49.0212 29.4385 49.0351 30.2358 49.1145 30.9953C49.1998 31.8002 49.342 31.3855 49.5435 32.1191L49.5559 32.1654C49.7639 32.9615 50.0212 33.7488 50.3616 34.4969C50.5558 34.924 50.8687 35.3347 50.75 35.8262C50.6832 36.103 50.4649 36.3987 50.2645 36.592C49.3515 37.4703 47.8081 36.9105 47.1877 38.1135C46.5384 39.3714 46.5223 41.0755 46.4672 42.4674L46.4639 42.5489C46.4237 43.508 46.4349 44.4697 46.498 45.4263C46.5547 46.298 46.7866 47.1613 46.4891 47.9991C46.2721 48.6081 45.5636 48.665 45.1928 48.1696C45.1503 48.1128 45.1113 48.0545 45.0747 47.9959L45.039 47.9371L45.0366 47.9384C45.0718 47.994 45.1046 48.051 45.1361 48.109C45.1701 48.1734 45.0856 48.2442 45.0339 48.1886C44.1613 47.2371 42.8865 47.4266 41.8991 48.0926C40.8992 48.7699 40.5045 50.0563 40.4528 51.2101C40.3948 52.49 40.5082 53.9902 41.0404 55.1728C41.2648 55.6732 41.585 56.1332 42.116 56.324C42.357 56.41 42.5864 56.3986 42.8373 56.4188C43.0982 56.4389 43.4123 56.5704 43.6656 56.5528C43.995 56.5293 44.2907 56.9061 44.1972 57.2218L44.1903 57.2427C44.1854 57.2579 44.1803 57.273 44.1753 57.2869C44.1878 57.2983 44.2004 57.3122 44.2093 57.3324C45.1676 59.2949 46.4816 61.0413 47.9342 62.6613C48.6619 63.4713 49.4689 64.2156 50.3125 64.9043C50.7286 65.2442 51.1674 65.5842 51.6302 65.8583C51.784 65.9479 51.9251 66.0087 52.0981 66.0581C52.1787 66.0807 52.2708 66.0921 52.349 66.1186L52.4301 66.1465C52.4357 66.1483 52.441 66.15 52.4461 66.1515C52.6781 66.178 52.8735 66.3322 52.9504 66.5736C53.1509 67.2029 52.7865 67.7589 52.1636 67.932C51.4887 68.1211 50.8527 67.789 50.3177 67.4078L50.2822 67.3823C49.1914 66.5952 48.1864 65.7117 47.3163 64.6806C45.5951 62.6448 44.5168 60.2881 44.0177 57.6812C43.894 57.9478 43.7276 58.1803 43.4388 58.3421C42.9899 58.5948 42.454 58.5948 41.9622 58.5102C40.9723 58.3421 40.1287 57.7368 39.565 56.9179C38.9798 56.0688 38.7618 55.0376 38.6294 54.033C38.4982 53.027 38.4339 52.0175 38.5651 51.0091C38.7531 49.5609 39.3595 48.1292 40.5385 47.3356C39.6558 45.4086 39.5007 43.2477 39.5638 41.1374C39.6407 38.5393 40.0883 35.9122 40.4326 33.3381L41.4112 26.0203L41.4513 25.7253C41.6874 24.0037 41.975 22.2731 42.6179 20.651C43.2522 19.0525 44.2156 17.6068 45.6682 16.6477ZM41.5499 51.2668C43.1664 50.4809 44.9129 51.2049 45.783 52.7302C46.5395 54.0562 44.2902 54.9328 43.9149 53.5659L43.9041 53.5237C43.657 52.4888 42.6506 51.5941 41.6003 51.4551C41.5133 51.4426 41.4488 51.3163 41.5499 51.2668Z" fill="black"/>
<path fill-rule="evenodd" clip-rule="evenodd" d="M71.0186 61.044C71.4885 60.2148 72.8908 60.3495 73.1052 61.3167C73.54 63.2773 71.2021 65.0877 69.4264 65.1329C67.6619 65.1777 65.682 63.6758 65.9374 61.7788C66.0006 61.3096 66.6273 61.3665 66.841 61.6607L66.924 61.7736C67.5043 62.5533 68.2701 63.3602 69.3471 63.1702C69.7935 63.0915 70.1989 62.8127 70.4688 62.4537C70.7942 62.0204 70.7585 61.5031 71.0186 61.044Z" fill="black"/>
<path fill-rule="evenodd" clip-rule="evenodd" d="M73.5332 61.044C73.0632 60.2148 71.6609 60.3495 71.4466 61.3167C71.0117 63.2773 73.3496 65.0877 75.1253 65.1329C76.8899 65.1777 78.8698 63.6758 78.6143 61.7788C78.5512 61.3096 77.9244 61.3665 77.7108 61.6607L77.6278 61.7736C77.0475 62.5533 76.2817 63.3602 75.2046 63.1702C74.7582 63.0915 74.3528 62.8127 74.083 62.4537C73.7575 62.0204 73.7933 61.5031 73.5332 61.044Z" fill="black"/>
<path fill-rule="evenodd" clip-rule="evenodd" d="M62.7126 46.7006C62.9518 46.6347 63.1931 46.6602 63.405 46.7503C63.8781 46.837 64.2733 47.2315 64.4121 47.6818C64.4231 47.7208 64.4353 47.7593 64.4488 47.7974L64.4699 47.8543L64.4132 47.7099C64.4394 47.8521 64.5551 48.0015 64.5968 48.1442C64.648 48.3197 64.6605 48.519 64.6432 48.7121C64.7936 48.7136 64.944 48.7187 65.0941 48.7317L65.2392 48.7447C66.0504 48.8201 66.9411 48.9584 67.4221 49.6594C67.6922 50.0533 67.4386 50.7625 66.9424 50.8384C66.1785 50.9553 65.5205 50.5326 64.7592 50.4479C64.0396 50.3678 63.2865 50.4137 62.5762 50.5437C61.1097 50.8118 59.7621 51.4062 58.3329 51.7792L58.1384 51.8286L58.1387 51.8276C57.8938 51.8868 57.6157 51.5463 57.858 51.3471C59.0029 50.4066 60.4688 49.6443 61.9129 49.1801C61.7025 48.8455 61.6374 48.4047 61.7812 48.0455C61.8035 47.971 61.8311 47.8986 61.8603 47.8265L61.9211 47.678C61.927 47.608 61.9404 47.5388 61.9598 47.471L61.963 47.4503L61.9648 47.4516C62.0723 47.1022 62.3531 46.7997 62.7126 46.7006Z" fill="black"/>
<path fill-rule="evenodd" clip-rule="evenodd" d="M77.3202 46.754C77.6334 46.4407 78.0734 46.487 78.4001 46.7335L78.4435 46.7675C78.7515 46.9043 79.0064 47.2033 79.1738 47.4804C79.3476 47.7682 79.4631 48.0613 79.4676 48.3781C80.2256 48.3806 80.9517 48.608 81.5082 49.22C81.6879 49.4175 81.8106 49.7221 81.7117 49.9899L81.6528 50.1492C81.466 50.6549 80.6258 50.946 80.3403 50.3513L80.3271 50.3223C80.0237 49.6161 78.8591 49.6902 78.2401 49.7624C77.8086 49.8129 77.3825 49.9201 76.9659 50.0403C76.8191 50.0826 76.6736 50.1285 76.5283 50.1754L76.3829 50.2226C76.3054 50.2476 75.9016 50.4669 76.1528 50.415C76.2203 50.401 76.2712 50.4994 76.2023 50.5324C75.9028 50.6755 75.5834 50.3905 75.6034 50.0689C75.6381 49.5106 76.5246 49.2045 76.9512 49.012L76.9767 49.0004C77.1402 48.9248 77.3116 48.8523 77.4884 48.7851C77.389 48.6371 77.3068 48.4728 77.2384 48.2964C77.1738 48.1298 77.1306 47.9679 77.1069 47.7908C77.0837 47.7042 77.0837 47.6177 77.1069 47.531L77.1105 47.5062C77.0985 47.4489 77.0927 47.3898 77.0935 47.3302L77.0911 47.307H77.0935C77.1019 47.0984 77.1847 46.8894 77.3202 46.754Z" fill="black"/>
<path fill-rule="evenodd" clip-rule="evenodd" d="M61.6313 41.7053L61.8365 41.6454C62.9028 41.3366 63.9913 40.8032 64.938 41.6354C65.3097 41.9622 65.3863 42.6413 65.1203 43.0489C64.5144 43.9777 63.6157 43.8358 62.637 43.915C61.8919 43.9753 61.1579 44.1942 60.4624 44.4677C59.894 44.6914 59.3668 45.0062 58.869 45.3574C58.38 45.7027 58.046 46.2425 57.5444 46.5533C57.3606 46.6673 57.1483 46.55 57.0822 46.3653C56.8483 45.7099 57.2436 44.8934 57.5781 44.335C57.9864 43.6537 58.6066 43.0965 59.2735 42.6749C60.0038 42.2131 60.8113 41.9465 61.6313 41.7053Z" fill="black"/>
<path fill-rule="evenodd" clip-rule="evenodd" d="M77.1695 41C78.9719 40.9995 80.7062 42.0019 81.7143 43.4715C82.0569 43.9707 81.8058 44.7104 81.3141 44.9979C80.7625 45.3206 80.1726 45.0882 79.8091 44.6258L79.7876 44.5978C79.2094 43.8279 78.4642 43.2215 77.5807 42.8268C77.1497 42.634 76.673 42.4778 76.2068 42.3985L76.0561 42.3726C75.8449 42.3373 75.5999 42.3035 75.4089 42.3366C75.3066 42.35 75.2126 42.3838 75.1261 42.4353C75.1677 42.5263 75.0602 42.6358 74.9609 42.5813C74.513 42.3353 74.5679 41.8965 74.9379 41.5554C75.4612 41.0729 76.4936 41.0001 77.1695 41Z" fill="black"/>
<path fill-rule="evenodd" clip-rule="evenodd" d="M71.8803 56.2978L70.7308 55.2636C70.0587 54.659 70.0041 53.6239 70.6088 52.9518C70.8822 52.648 71.2594 52.4574 71.6662 52.4175L74.0362 52.1855C74.9493 52.0962 75.7621 52.764 75.8515 53.6771C75.8901 54.0713 75.7865 54.4664 75.5596 54.791L74.7344 55.9711C74.1276 56.839 72.932 57.0507 72.0641 56.4438C71.9999 56.399 71.9385 56.3502 71.8803 56.2978Z" fill="black"/>
<path d="M53.6324 54.7153C52.4725 54.7648 52.6155 54.6594 54.0614 54.3993C56.2304 54.0091 62.1329 53.7451 64.4873 54.5611L64.5597 54.5865C64.9124 55.3301 64.8055 55.6313 64.2389 55.4901C63.3891 55.2782 58.5129 54.4317 53.7763 54.7068L53.6324 54.7153Z" fill="black"/>
<path d="M87.2595 55.0086C88.1622 55.1222 88.0453 55.0103 86.909 54.673C85.2044 54.167 80.6102 53.5768 78.8292 54.2498L78.7745 54.2709C78.5424 54.9844 78.6422 55.2873 79.0738 55.1797C79.7213 55.0183 83.4572 54.4561 87.1474 54.9922L87.2595 55.0086Z" fill="black"/>
<path d="M88.6339 58.5868C89.512 58.8249 89.4118 58.6979 88.3335 58.2057C86.7159 57.4674 82.2486 56.2436 80.3912 56.6622L80.3341 56.6754C80.0049 57.3497 80.0616 57.6636 80.504 57.6171C81.1677 57.5473 84.9455 57.5105 88.5251 58.5549L88.6339 58.5868Z" fill="black"/>
<path d="M86.5696 61.9164C87.417 62.2498 87.3308 62.111 86.311 61.4999C84.7814 60.5833 80.4716 58.8744 78.583 59.0999L78.5248 59.1071C78.1275 59.7527 78.151 60.0754 78.5953 60.0754C79.2618 60.0754 83.0182 60.439 86.4649 61.8727L86.5696 61.9164Z" fill="black"/>
<path d="M51.7722 58.4602C50.6304 58.6705 50.7574 58.5463 52.1531 58.0875C54.2466 57.3993 60.055 56.3163 62.5 56.7967L62.5752 56.8118C63.028 57.4991 62.964 57.8122 62.3833 57.7512C61.5123 57.6597 56.5657 57.5 51.9135 58.4317L51.7722 58.4602Z" fill="black"/>
<path d="M54.3459 61.8752C53.2324 62.2038 53.3457 62.067 54.6857 61.4648C56.6958 60.5615 62.3592 58.8774 64.8411 59.0996L64.9175 59.1067C65.4396 59.7429 65.4087 60.061 64.8248 60.061C63.949 60.061 59.0128 60.4193 54.4835 61.8322L54.3459 61.8752Z" fill="black"/>
</g>
</svg>
