<svg width="120" height="120" viewBox="0 0 120 120" fill="none" xmlns="http://www.w3.org/2000/svg">
<circle opacity="0.5" cx="60" cy="60" r="60" fill="#FAD06A"/>
<mask id="mask0" mask-type="alpha" maskUnits="userSpaceOnUse" x="0" y="0" width="120" height="120">
<circle cx="60" cy="60" r="60" fill="#C4C4C4"/>
</mask>
<g mask="url(#mask0)">
<circle cx="60" cy="60" r="60" fill="#3B364A"/>
<path d="M31.7211 88.2784C30.9834 88.7702 27.2948 91.2292 23.1145 94.9178C21.5273 96.6373 20.6554 99.5899 20.6554 102.295C13.7702 105.983 13.7702 113.852 13.2784 115.328C12.7866 116.803 29.0161 123.196 59.9997 122.705C90.9833 122.213 117.787 117.295 118.524 115.328C119.262 113.36 115.328 106.229 113.606 102.295C111.885 98.3604 107.632 96.8047 101.803 91.2292C96.1472 85.8194 92.2128 81.885 90.9833 78.4424C89.9997 75.6881 89.9997 71.5571 90.2456 70.8194C90.4915 70.0817 88.7702 64.6719 88.0325 62.9505C87.2948 61.2292 88.2784 59.0161 88.0325 55.0817C87.7866 51.1473 86.3112 56.0653 85.0817 40.5735C83.9473 26.2801 80.1637 22.3768 77.2129 19.1801C74.262 15.9833 72.5407 13.2784 61.7211 11.5571C50.9014 9.8358 47.4587 13.5243 44.262 15.7374C41.0653 17.9506 39.344 24.8358 35.4096 30.2456C31.4752 35.6555 31.9669 40.3276 32.9506 41.803C32.9506 42.7866 31.7211 44.7538 30.2456 54.5899C28.7702 64.426 32.7046 70.8194 34.6718 73.7702C35.6554 75.2456 33.4424 79.6719 31.7211 82.1309C29.9997 84.5899 30.9833 87.5407 31.7211 88.2784Z" fill="black"/>
<path d="M53.853 13.2789C52.9461 12.8255 50.9022 18.9346 50.6564 19.6723C47.7055 20.492 42.9512 21.3936 41.312 23.8527C39.345 26.8035 38.0978 38.3609 39.8366 38.3609C41.5581 38.3609 46.968 37.869 47.7056 40.0822C47.6236 39.9182 46.4761 39.3445 44.7547 39.0986C43.1961 38.8759 40.0826 41.3117 41.804 40.8199C43.181 40.4264 45.7384 40.0822 46.7219 40.574C46.476 41.2297 46.2794 42.3445 45.4925 42.5412C44.5089 42.7871 43.9603 40.4981 43.2792 41.0658C41.804 42.2953 40.3284 41.9674 39.0989 42.0494C38.8531 44.0166 38.8532 49.4264 39.3449 53.115C39.9631 57.7525 43.7708 63.6887 46.7217 65.6559C49.6725 67.6232 56.312 68.3609 59.7547 67.8691C60.7584 67.7257 64.6726 65.6559 67.3777 64.1805C69.1181 63.2312 69.5908 57.7871 69.5908 56.3117C69.5908 54.8363 68.3612 55.0822 68.1153 52.6232C67.8694 50.1641 69.5908 44.7543 69.5908 43.5248C69.5908 42.5412 69.9187 35.7379 70.0826 32.4592C68.6892 31.0658 65.4102 27.5412 62.4595 24.5904C59.5022 21.6329 54.099 19.9182 51.64 19.6723C51.64 16.9381 54.3448 13.5248 53.853 13.2789Z" fill="white"/>
<path d="M59.5087 37.623C55.5743 37.623 53.607 40.0821 53.1152 41.3116L54.0988 41.0657C54.7546 40.328 56.6562 38.8034 59.0169 38.6067C61.3775 38.4099 62.6234 39.3444 62.9513 39.8362C62.6234 39.8362 61.4759 39.787 59.5087 39.5903C57.5415 39.3935 56.7218 40.4919 56.5579 41.0657L59.0169 40.328C58.8529 40.9017 58.8202 42.0985 60.0005 42.2952C61.1808 42.4919 61.6398 41.5575 61.7218 41.0657C62.9513 41.0657 65.5087 40.9673 65.9021 40.5739C66.2956 40.1804 66.3939 39.4263 66.3939 39.0985C65.7382 38.6067 63.4431 37.623 59.5087 37.623Z" fill="#1D1D1D"/>
<path d="M49.4264 68.8522C52.3772 69.1801 57.7872 69.4763 60.492 68.8522C63.6888 68.1145 66.1477 66.5571 67.869 65.9014C68.2789 67.5407 69.2461 71.0653 69.8362 72.0489C70.574 73.2784 71.8035 74.7538 71.3117 76.4751C70.8199 78.1964 70.079 83.452 70.8199 85.0817C72.0495 87.7866 69.5903 101.311 69.8362 101.803C70.0821 102.295 76.4757 95.9014 81.1479 94.1801C85.82 92.4587 90.2461 90.7374 94.4264 90.2456C93.497 91.1751 89.5577 93.4278 87.8411 94.3214C90.5087 93.5829 98.4548 93.2904 99.0985 93.9342C99.8362 94.6719 90.2461 94.9178 78.6887 101.311C69.4428 106.426 61.5576 111.639 58.7707 113.606L63.6888 107.705C57.7052 107.951 44.5161 106.782 39.8363 104.262C36.6397 102.541 33.4429 99.8358 36.1477 93.9342C36.5171 93.1281 38.144 94.2197 39.8363 92.9505C41.8036 91.4751 42.0495 86.0653 42.7872 85.5735C43.5249 85.0817 51.1477 79.426 52.1313 77.9505C53.1149 76.4751 52.1313 71.5571 51.8854 71.0653C51.6887 70.6719 50.1641 69.426 49.4264 68.8522Z" fill="white"/>
<path d="M47.4593 53.36C47.2626 53.1633 47.3773 52.4583 47.4593 52.1305C47.3773 52.0485 47.1641 51.9338 46.9674 52.1305C46.7215 52.3764 47.2133 54.3436 47.4593 54.5895C47.7053 54.8354 48.6887 55.5731 51.6395 55.3272C54.5904 55.0813 55.0822 53.6059 55.3281 53.1141C55.5248 52.7206 54.7543 51.9665 54.3445 51.6387C54.2625 52.0485 54.0002 52.9665 53.6068 53.36C53.1149 53.8518 53.1149 53.1141 51.8854 53.1141C50.6559 53.1141 50.41 54.0977 49.6723 54.3436C48.9346 54.5895 47.7052 53.6059 47.4593 53.36Z" fill="#1D1D1D"/>
<path d="M56.5576 58.0321H47.2133C47.869 58.36 49.7707 59.0157 52.1313 59.0157C54.492 59.0157 56.0657 58.36 56.5576 58.0321Z" fill="#1D1D1D"/>
<path d="M53.1149 60.9829H50.1641C50.1641 61.2288 50.4592 61.7206 51.6395 61.7206C52.8199 61.7206 53.1149 61.2288 53.1149 60.9829Z" fill="#1D1D1D"/>
</g>
</svg>
